<?xml version="1.0" encoding="UTF-8" standalone="no"?>
<!-- Created with Inkscape (http://www.inkscape.org/) -->

<svg
   xmlns:dc="http://purl.org/dc/elements/1.1/"
   xmlns:cc="http://creativecommons.org/ns#"
   xmlns:rdf="http://www.w3.org/1999/02/22-rdf-syntax-ns#"
   xmlns:svg="http://www.w3.org/2000/svg"
   xmlns="http://www.w3.org/2000/svg"
   xmlns:sodipodi="http://sodipodi.sourceforge.net/DTD/sodipodi-0.dtd"
   xmlns:inkscape="http://www.inkscape.org/namespaces/inkscape"
   width="210mm"
   height="297mm"
   viewBox="0 0 210 297"
   version="1.1"
   id="svg8"
   inkscape:version="0.92.2 (5c3e80d, 2017-08-06)"
   sodipodi:docname="colorsmmp.svg">
  <defs
     id="defs2" />
  <sodipodi:namedview
     id="base"
     pagecolor="#ffffff"
     bordercolor="#666666"
     borderopacity="1.0"
     inkscape:pageopacity="0.0"
     inkscape:pageshadow="2"
     inkscape:zoom="0.7"
     inkscape:cx="307.13474"
     inkscape:cy="547.03412"
     inkscape:document-units="mm"
     inkscape:current-layer="layer1"
     showgrid="false"
     inkscape:window-width="958"
     inkscape:window-height="991"
     inkscape:window-x="-8"
     inkscape:window-y="0"
     inkscape:window-maximized="0" />
  <metadata
     id="metadata5">
    <rdf:RDF>
      <cc:Work
         rdf:about="">
        <dc:format>image/svg+xml</dc:format>
        <dc:type
           rdf:resource="http://purl.org/dc/dcmitype/StillImage" />
        <dc:title />
      </cc:Work>
    </rdf:RDF>
  </metadata>
  <g
     inkscape:label="Ebene 1"
     inkscape:groupmode="layer"
     id="layer1">
    <path
       style="opacity:1;fill:#892f52;fill-opacity:1;stroke:#ffffff;stroke-width:2.61937475;stroke-linejoin:bevel;stroke-miterlimit:4;stroke-dasharray:none;stroke-dashoffset:0;stroke-opacity:1"
       d="m 39.309513,13.465153 h 24.946449 c 12.145125,0 21.922608,9.777483 21.922608,21.922607 v 22.678597 c 0,12.145124 -9.777483,21.922607 -21.922608,21.922607 H 39.309513 c -12.145124,0 -21.922607,-9.777483 -21.922607,-21.922607 V 35.38776 c 0,-12.145124 9.777483,-21.922607 21.922607,-21.922607 z"
       id="rect10"
       inkscape:export-xdpi="96"
       inkscape:export-ydpi="96" />
    <path
       style="opacity:1;fill:#554fbd;fill-opacity:1;stroke:#ffffff;stroke-width:2.61937499;stroke-linejoin:bevel;stroke-miterlimit:4;stroke-dasharray:none;stroke-dashoffset:0;stroke-opacity:1"
       d="m 39.309517,213.0365 h 24.946449 c 12.145125,0 21.922608,9.77748 21.922608,21.92261 v 22.67859 c 0,12.14513 -9.777483,21.92261 -21.922608,21.92261 H 39.309517 c -12.145125,0 -21.922608,-9.77748 -21.922608,-21.92261 v -22.67859 c 0,-12.14513 9.777483,-21.92261 21.922608,-21.92261 z"
       id="rect10-9"
       inkscape:export-xdpi="96"
       inkscape:export-ydpi="96" />
    <path
       style="opacity:1;fill:#7e45a4;fill-opacity:1;stroke:#ffffff;stroke-width:2.61937499;stroke-linejoin:bevel;stroke-miterlimit:4;stroke-dasharray:none;stroke-dashoffset:0;stroke-opacity:1"
       d="m 39.309517,146.5127 h 24.946449 c 12.145125,0 21.922608,9.77748 21.922608,21.9226 v 22.6786 c 0,12.14512 -9.777483,21.92261 -21.922608,21.92261 H 39.309517 c -12.145125,0 -21.922608,-9.77749 -21.922608,-21.92261 v -22.6786 c 0,-12.14512 9.777483,-21.9226 21.922608,-21.9226 z"
       id="rect10-2"
       inkscape:export-xdpi="96"
       inkscape:export-ydpi="96" />
    <path
       style="opacity:1;fill:#d778b8;fill-opacity:1;stroke:#ffffff;stroke-width:2.61937499;stroke-linejoin:bevel;stroke-miterlimit:4;stroke-dasharray:none;stroke-dashoffset:0;stroke-opacity:1"
       d="m 39.309513,79.989006 h 24.946449 c 12.145125,0 21.922608,9.777483 21.922608,21.922604 v 22.6786 c 0,12.14512 -9.777483,21.92261 -21.922608,21.92261 H 39.309513 c -12.145124,0 -21.922607,-9.77749 -21.922607,-21.92261 v -22.6786 c 0,-12.145121 9.777483,-21.922604 21.922607,-21.922604 z"
       id="rect10-21"
       inkscape:export-xdpi="96"
       inkscape:export-ydpi="96" />
    <g
       style="font-style:normal;font-variant:normal;font-weight:normal;font-stretch:normal;font-size:40px;line-height:1.25;font-family:Magneto;-inkscape-font-specification:Magneto;letter-spacing:0px;word-spacing:0px;fill:#000000;fill-opacity:1;stroke:none"
       id="flowRoot39"
       inkscape:export-xdpi="96"
       inkscape:export-ydpi="96" />
    <g
       aria-label="#892F52"
       transform="matrix(0.26458333,0,0,0.26458333,10.205357,1.5119048)"
       style="font-style:normal;font-variant:normal;font-weight:normal;font-stretch:normal;font-size:40px;line-height:1.25;font-family:Magneto;-inkscape-font-specification:Magneto;letter-spacing:0px;word-spacing:0px;fill:#000000;fill-opacity:1;stroke:none"
       id="flowRoot4541"
       inkscape:export-xdpi="96"
       inkscape:export-ydpi="96">
      <path
         d="m 403.21094,146.92578 h -6.50391 l -1.79687,7.34375 h 6.01562 v 2.63672 h -6.69922 l -2.03125,8.22266 h -2.51953 l 2.03125,-8.22266 h -5.27344 l -2.03125,8.22266 h -2.51953 l 2.03125,-8.22266 h -5.82031 v -2.63672 h 6.50391 l 1.79687,-7.34375 h -6.01562 v -2.63672 h 6.69921 l 2.05079,-8.24219 h 2.51953 l -2.05078,8.24219 h 5.27343 l 2.05078,-8.24219 h 2.51954 l -2.05079,8.24219 h 5.82032 z m -8.96485,-0.0391 h -5.35156 l -1.83594,7.42187 h 5.35157 z"
         style="font-style:normal;font-variant:normal;font-weight:normal;font-stretch:normal;font-family:sans-serif;-inkscape-font-specification:sans-serif"
         id="path4597"
         inkscape:connector-curvature="0" />
      <path
         d="m 430.06641,157.02344 q 0,3.76953 -2.94922,6.26953 -2.92969,2.5 -7.38282,2.5 -4.72656,0 -7.53906,-2.44141 -2.79297,-2.4414 -2.79297,-6.25 0,-2.42187 1.40625,-4.375 1.40625,-1.97265 3.96485,-3.125 v -0.11719 q -2.34375,-1.25 -3.47657,-2.73437 -1.11328,-1.48438 -1.11328,-3.71094 0,-3.28125 2.69532,-5.46875 2.69531,-2.1875 6.85546,-2.1875 4.35547,0 6.95313,2.08985 2.59766,2.08984 2.59766,5.3125 0,1.97265 -1.23047,3.88671 -1.23047,1.89454 -3.61328,2.96875 v 0.11719 q 2.73437,1.17188 4.17968,2.89063 1.44532,1.71875 1.44532,4.375 z m -4.62891,-14.19922 q 0,-2.08985 -1.62109,-3.32031 -1.60157,-1.25 -4.10157,-1.25 -2.46093,0 -4.04297,1.17187 -1.5625,1.17188 -1.5625,3.16406 0,1.40625 0.78125,2.44141 0.80079,1.01562 2.40235,1.81641 0.72265,0.35156 2.07031,0.91796 1.36719,0.56641 2.65625,0.9375 1.93359,-1.28906 2.67578,-2.67578 0.74219,-1.38672 0.74219,-3.20312 z m 0.60547,14.57031 q 0,-1.79687 -0.80078,-2.87109 -0.78125,-1.09375 -3.08594,-2.1875 -0.91797,-0.42969 -2.01172,-0.80078 -1.09375,-0.3711 -2.91016,-1.03516 -1.75781,0.95703 -2.83203,2.59766 -1.05468,1.64062 -1.05468,3.71093 0,2.63672 1.8164,4.35547 1.81641,1.71875 4.60938,1.71875 2.85156,0 4.55078,-1.46484 1.71875,-1.46485 1.71875,-4.02344 z"
         style="font-style:normal;font-variant:normal;font-weight:normal;font-stretch:normal;font-family:sans-serif;-inkscape-font-specification:sans-serif"
         id="path4599"
         inkscape:connector-curvature="0" />
      <path
         d="m 455.28125,148.83984 q 0,3.8086 -0.87891,6.91407 -0.85937,3.10546 -2.61718,5.29296 -1.77735,2.22657 -4.45313,3.4375 -2.67578,1.21094 -6.28906,1.21094 -1.01563,0 -1.91406,-0.11719 -0.89844,-0.0977 -1.60157,-0.33203 v -3.73047 h 0.19532 q 0.5664,0.29297 1.60156,0.56641 1.03515,0.25391 2.30469,0.25391 4.3164,0 6.75781,-2.57813 2.46094,-2.59765 2.85156,-7.14844 -1.81641,1.09375 -3.41797,1.5625 -1.60156,0.46875 -3.49609,0.46875 -1.79688,0 -3.26172,-0.35156 -1.44531,-0.35156 -2.91016,-1.36719 -1.71875,-1.1914 -2.59765,-3.02734 -0.85938,-1.83594 -0.85938,-4.39453 0,-4.45313 2.92969,-7.24609 2.92969,-2.79297 7.14844,-2.79297 2.10937,0 3.90625,0.66406 1.79687,0.64453 3.14453,1.95312 1.66015,1.6211 2.55859,4.17969 0.89844,2.53906 0.89844,6.58203 z M 451.33594,148 q 0,-3.02734 -0.625,-4.86328 -0.625,-1.83594 -1.71875,-2.85156 -0.91797,-0.87891 -1.97266,-1.25 -1.05469,-0.39063 -2.28516,-0.39063 -2.8125,0 -4.45312,1.75781 -1.62109,1.75782 -1.62109,4.94141 0,1.85547 0.52734,3.02734 0.52734,1.17188 1.77734,2.05078 0.87891,0.60547 1.9336,0.82032 1.05468,0.19531 2.34375,0.19531 1.52343,0 3.08593,-0.41016 1.5625,-0.41015 2.92969,-1.1914 0.0195,-0.41016 0.0391,-0.80078 0.0391,-0.41016 0.0391,-1.03516 z"
         style="font-style:normal;font-variant:normal;font-weight:normal;font-stretch:normal;font-family:sans-serif;-inkscape-font-specification:sans-serif"
         id="path4601"
         inkscape:connector-curvature="0" />
      <path
         d="m 480.78906,165.12891 h -19.6875 v -4.08204 q 2.05078,-1.75781 4.10156,-3.51562 2.07032,-1.75781 3.84766,-3.49609 3.75,-3.63282 5.13672,-5.76172 1.38672,-2.14844 1.38672,-4.62891 0,-2.26562 -1.50391,-3.53516 -1.48437,-1.28906 -4.16015,-1.28906 -1.77735,0 -3.84766,0.625 -2.07031,0.625 -4.04297,1.91406 h -0.19531 v -4.10156 q 1.38672,-0.68359 3.6914,-1.25 2.32422,-0.5664 4.49219,-0.5664 4.47266,0 7.01172,2.16796 2.53906,2.14844 2.53906,5.83985 0,1.66015 -0.42968,3.10547 -0.41016,1.42578 -1.23047,2.71484 -0.76172,1.21094 -1.79688,2.38281 -1.01562,1.17188 -2.48047,2.59766 -2.08984,2.05078 -4.3164,3.98437 -2.22657,1.91407 -4.16016,3.55469 h 15.64453 z"
         style="font-style:normal;font-variant:normal;font-weight:normal;font-stretch:normal;font-family:sans-serif;-inkscape-font-specification:sans-serif"
         id="path4603"
         inkscape:connector-curvature="0" />
      <path
         d="m 505.90625,139.48437 h -14.70703 v 8.20313 h 12.63672 v 3.4375 h -12.63672 v 14.00391 h -3.86719 v -29.08204 h 18.57422 z"
         style="font-style:normal;font-variant:normal;font-weight:normal;font-stretch:normal;font-family:sans-serif;-inkscape-font-specification:sans-serif"
         id="path4605"
         inkscape:connector-curvature="0" />
      <path
         d="m 528.99219,155.89062 q 0,2.03125 -0.74219,3.88672 -0.74219,1.85547 -2.03125,3.125 -1.40625,1.36719 -3.35938,2.10938 -1.93359,0.72265 -4.49218,0.72265 -2.38282,0 -4.58985,-0.50781 -2.20703,-0.48828 -3.73047,-1.1914 v -4.1211 h 0.27344 q 1.60156,1.01563 3.75,1.73828 2.14844,0.70313 4.21875,0.70313 1.38672,0 2.67578,-0.39063 1.3086,-0.39062 2.32422,-1.36718 0.85938,-0.83985 1.28906,-2.01172 0.44922,-1.17188 0.44922,-2.71485 0,-1.5039 -0.52734,-2.53906 -0.50781,-1.03516 -1.42578,-1.66016 -1.01563,-0.74218 -2.48047,-1.03515 -1.44531,-0.3125 -3.24219,-0.3125 -1.71875,0 -3.32031,0.23437 -1.58203,0.23438 -2.73438,0.46875 v -14.98047 h 17.5 v 3.41797 h -13.73046 v 7.73438 q 0.83984,-0.0781 1.71875,-0.11719 0.8789,-0.0391 1.52343,-0.0391 2.36328,0 4.14063,0.41015 1.77734,0.39063 3.26172,1.40625 1.5625,1.07422 2.42187,2.77344 0.85938,1.69922 0.85938,4.25781 z"
         style="font-style:normal;font-variant:normal;font-weight:normal;font-stretch:normal;font-family:sans-serif;-inkscape-font-specification:sans-serif"
         id="path4607"
         inkscape:connector-curvature="0" />
      <path
         d="m 554.69531,165.12891 h -19.6875 v -4.08204 q 2.05078,-1.75781 4.10156,-3.51562 2.07032,-1.75781 3.84766,-3.49609 3.75,-3.63282 5.13672,-5.76172 1.38672,-2.14844 1.38672,-4.62891 0,-2.26562 -1.50391,-3.53516 -1.48437,-1.28906 -4.16015,-1.28906 -1.77735,0 -3.84766,0.625 -2.07031,0.625 -4.04297,1.91406 h -0.19531 v -4.10156 q 1.38672,-0.68359 3.6914,-1.25 2.32422,-0.5664 4.49219,-0.5664 4.47266,0 7.01172,2.16796 2.53906,2.14844 2.53906,5.83985 0,1.66015 -0.42968,3.10547 -0.41016,1.42578 -1.23047,2.71484 -0.76172,1.21094 -1.79688,2.38281 -1.01562,1.17188 -2.48047,2.59766 -2.08984,2.05078 -4.3164,3.98437 -2.22657,1.91407 -4.16016,3.55469 h 15.64453 z"
         style="font-style:normal;font-variant:normal;font-weight:normal;font-stretch:normal;font-family:sans-serif;-inkscape-font-specification:sans-serif"
         id="path4609"
         inkscape:connector-curvature="0" />
    </g>
    <g
       aria-label="#554FBD"
       transform="matrix(0.26458333,0,0,0.26458333,12.576716,196.04686)"
       style="font-style:normal;font-variant:normal;font-weight:normal;font-stretch:normal;font-size:40px;line-height:1.25;font-family:Magneto;-inkscape-font-specification:Magneto;letter-spacing:0px;word-spacing:0px;fill:#000000;fill-opacity:1;stroke:none"
       id="flowRoot4541-3"
       inkscape:export-xdpi="96"
       inkscape:export-ydpi="96">
      <path
         d="m 403.21094,146.92578 h -6.50391 l -1.79687,7.34375 h 6.01562 v 2.63672 h -6.69922 l -2.03125,8.22266 h -2.51953 l 2.03125,-8.22266 h -5.27344 l -2.03125,8.22266 h -2.51953 l 2.03125,-8.22266 h -5.82031 v -2.63672 h 6.50391 l 1.79687,-7.34375 h -6.01562 v -2.63672 h 6.69921 l 2.05079,-8.24219 h 2.51953 l -2.05078,8.24219 h 5.27343 l 2.05078,-8.24219 h 2.51954 l -2.05079,8.24219 h 5.82032 z m -8.96485,-0.0391 h -5.35156 l -1.83594,7.42187 h 5.35157 z"
         style="font-style:normal;font-variant:normal;font-weight:normal;font-stretch:normal;font-family:sans-serif;-inkscape-font-specification:sans-serif"
         id="path4642"
         inkscape:connector-curvature="0" />
      <path
         d="m 429.61719,155.89062 q 0,2.03125 -0.74219,3.88672 -0.74219,1.85547 -2.03125,3.125 -1.40625,1.36719 -3.35938,2.10938 -1.93359,0.72265 -4.49218,0.72265 -2.38282,0 -4.58985,-0.50781 -2.20703,-0.48828 -3.73047,-1.1914 v -4.1211 h 0.27344 q 1.60156,1.01563 3.75,1.73828 2.14844,0.70313 4.21875,0.70313 1.38672,0 2.67578,-0.39063 1.3086,-0.39062 2.32422,-1.36718 0.85938,-0.83985 1.28906,-2.01172 0.44922,-1.17188 0.44922,-2.71485 0,-1.5039 -0.52734,-2.53906 -0.50781,-1.03516 -1.42578,-1.66016 -1.01563,-0.74218 -2.48047,-1.03515 -1.44531,-0.3125 -3.24219,-0.3125 -1.71875,0 -3.32031,0.23437 -1.58203,0.23438 -2.73438,0.46875 v -14.98047 h 17.5 v 3.41797 h -13.73046 v 7.73438 q 0.83984,-0.0781 1.71875,-0.11719 0.8789,-0.0391 1.52343,-0.0391 2.36328,0 4.14063,0.41015 1.77734,0.39063 3.26172,1.40625 1.5625,1.07422 2.42187,2.77344 0.85938,1.69922 0.85938,4.25781 z"
         style="font-style:normal;font-variant:normal;font-weight:normal;font-stretch:normal;font-family:sans-serif;-inkscape-font-specification:sans-serif"
         id="path4644"
         inkscape:connector-curvature="0" />
      <path
         d="m 455.08594,155.89062 q 0,2.03125 -0.74219,3.88672 -0.74219,1.85547 -2.03125,3.125 -1.40625,1.36719 -3.35938,2.10938 -1.93359,0.72265 -4.49218,0.72265 -2.38282,0 -4.58985,-0.50781 -2.20703,-0.48828 -3.73047,-1.1914 v -4.1211 h 0.27344 q 1.60156,1.01563 3.75,1.73828 2.14844,0.70313 4.21875,0.70313 1.38672,0 2.67578,-0.39063 1.3086,-0.39062 2.32422,-1.36718 0.85938,-0.83985 1.28906,-2.01172 0.44922,-1.17188 0.44922,-2.71485 0,-1.5039 -0.52734,-2.53906 -0.50781,-1.03516 -1.42578,-1.66016 -1.01563,-0.74218 -2.48047,-1.03515 -1.44531,-0.3125 -3.24219,-0.3125 -1.71875,0 -3.32031,0.23437 -1.58203,0.23438 -2.73438,0.46875 v -14.98047 h 17.5 v 3.41797 h -13.73046 v 7.73438 q 0.83984,-0.0781 1.71875,-0.11719 0.8789,-0.0391 1.52343,-0.0391 2.36328,0 4.14063,0.41015 1.77734,0.39063 3.26172,1.40625 1.5625,1.07422 2.42187,2.77344 0.85938,1.69922 0.85938,4.25781 z"
         style="font-style:normal;font-variant:normal;font-weight:normal;font-stretch:normal;font-family:sans-serif;-inkscape-font-specification:sans-serif"
         id="path4646"
         inkscape:connector-curvature="0" />
      <path
         d="m 481.45312,156.94531 h -4.3164 v 8.1836 h -3.75 v -8.1836 h -13.92578 v -4.49219 l 14.08203,-16.40625 h 3.59375 v 17.77344 h 4.3164 z m -8.0664,-3.125 v -13.125 l -11.26953,13.125 z"
         style="font-style:normal;font-variant:normal;font-weight:normal;font-stretch:normal;font-family:sans-serif;-inkscape-font-specification:sans-serif"
         id="path4648"
         inkscape:connector-curvature="0" />
      <path
         d="m 505.90625,139.48437 h -14.70703 v 8.20313 h 12.63672 v 3.4375 h -12.63672 v 14.00391 h -3.86719 v -29.08204 h 18.57422 z"
         style="font-style:normal;font-variant:normal;font-weight:normal;font-stretch:normal;font-family:sans-serif;-inkscape-font-specification:sans-serif"
         id="path4650"
         inkscape:connector-curvature="0" />
      <path
         d="m 532.23437,156.18359 q 0,2.16797 -0.82031,3.82813 -0.82031,1.66015 -2.20703,2.73437 -1.64062,1.28907 -3.61328,1.83594 -1.95313,0.54688 -4.98047,0.54688 h -10.3125 v -29.08204 h 8.61328 q 3.1836,0 4.76563,0.23438 1.58203,0.23437 3.02734,0.97656 1.60156,0.83985 2.32422,2.16797 0.72266,1.30859 0.72266,3.14453 0,2.07031 -1.05469,3.53516 -1.05469,1.44531 -2.8125,2.32422 v 0.15625 q 2.94922,0.60547 4.64844,2.59765 1.69921,1.97266 1.69921,5 z m -6.5039,-13.10547 q 0,-1.05468 -0.35156,-1.77734 -0.35157,-0.72266 -1.13282,-1.17187 -0.91797,-0.52735 -2.22656,-0.64454 -1.30859,-0.13671 -3.24219,-0.13671 h -4.60937 v 8.39843 h 5 q 1.8164,0 2.89062,-0.17578 1.07422,-0.19531 1.99219,-0.78125 0.91797,-0.58594 1.28906,-1.5039 0.39063,-0.9375 0.39063,-2.20704 z m 2.48047,13.26172 q 0,-1.75781 -0.52735,-2.79297 -0.52734,-1.03515 -1.91406,-1.75781 -0.9375,-0.48828 -2.28516,-0.625 -1.32812,-0.15625 -3.24218,-0.15625 h -6.07422 v 10.82031 h 5.11719 q 2.53906,0 4.16015,-0.2539 1.6211,-0.27344 2.65625,-0.97656 1.09375,-0.76172 1.60156,-1.73829 0.50782,-0.97656 0.50782,-2.51953 z"
         style="font-style:normal;font-variant:normal;font-weight:normal;font-stretch:normal;font-family:sans-serif;-inkscape-font-specification:sans-serif"
         id="path4652"
         inkscape:connector-curvature="0" />
      <path
         d="m 562.29297,150.61719 q 0,3.96484 -1.73828,7.1875 -1.71875,3.22265 -4.58985,5 -1.99218,1.23047 -4.45312,1.77734 -2.44141,0.54688 -6.44531,0.54688 h -7.34375 v -29.08204 h 7.26562 q 4.25781,0 6.75781,0.625 2.51953,0.60547 4.25782,1.67969 2.96875,1.85547 4.6289,4.94141 1.66016,3.08594 1.66016,7.32422 z m -4.04297,-0.0586 q 0,-3.41797 -1.19141,-5.76172 -1.1914,-2.34375 -3.55468,-3.6914 -1.71875,-0.97656 -3.65235,-1.34766 -1.93359,-0.39062 -4.6289,-0.39062 h -3.63282 v 22.4414 h 3.63282 q 2.79296,0 4.86328,-0.41015 2.08984,-0.41016 3.82812,-1.52344 2.16797,-1.38672 3.24219,-3.65234 1.09375,-2.26563 1.09375,-5.66407 z"
         style="font-style:normal;font-variant:normal;font-weight:normal;font-stretch:normal;font-family:sans-serif;-inkscape-font-specification:sans-serif"
         id="path4654"
         inkscape:connector-curvature="0" />
    </g>
    <g
       aria-label="#7E45A4"
       transform="matrix(0.26458333,0,0,0.26458333,12.19874,131.03495)"
       style="font-style:normal;font-variant:normal;font-weight:normal;font-stretch:normal;font-size:40px;line-height:1.25;font-family:Magneto;-inkscape-font-specification:Magneto;letter-spacing:0px;word-spacing:0px;fill:#000000;fill-opacity:1;stroke:none"
       id="flowRoot4541-2"
       inkscape:export-xdpi="96"
       inkscape:export-ydpi="96">
      <path
         d="m 403.21094,146.92578 h -6.50391 l -1.79687,7.34375 h 6.01562 v 2.63672 h -6.69922 l -2.03125,8.22266 h -2.51953 l 2.03125,-8.22266 h -5.27344 l -2.03125,8.22266 h -2.51953 l 2.03125,-8.22266 h -5.82031 v -2.63672 h 6.50391 l 1.79687,-7.34375 h -6.01562 v -2.63672 h 6.69921 l 2.05079,-8.24219 h 2.51953 l -2.05078,8.24219 h 5.27343 l 2.05078,-8.24219 h 2.51954 l -2.05079,8.24219 h 5.82032 z m -8.96485,-0.0391 h -5.35156 l -1.83594,7.42187 h 5.35157 z"
         style="font-style:normal;font-variant:normal;font-weight:normal;font-stretch:normal;font-family:sans-serif;-inkscape-font-specification:sans-serif"
         id="path4627"
         inkscape:connector-curvature="0" />
      <path
         d="m 429.92969,140.40234 -13.16407,24.72657 h -4.17968 l 14.0039,-25.66407 h -16.5625 v -3.41797 h 19.90235 z"
         style="font-style:normal;font-variant:normal;font-weight:normal;font-stretch:normal;font-family:sans-serif;-inkscape-font-specification:sans-serif"
         id="path4629"
         inkscape:connector-curvature="0" />
      <path
         d="m 455.55469,165.12891 h -19.16016 v -29.08204 h 19.16016 v 3.4375 h -15.29297 v 7.96875 h 15.29297 v 3.4375 h -15.29297 v 10.80079 h 15.29297 z"
         style="font-style:normal;font-variant:normal;font-weight:normal;font-stretch:normal;font-family:sans-serif;-inkscape-font-specification:sans-serif"
         id="path4631"
         inkscape:connector-curvature="0" />
      <path
         d="m 481.29687,156.94531 h -4.3164 v 8.1836 h -3.75 v -8.1836 h -13.92578 v -4.49219 l 14.08203,-16.40625 h 3.59375 v 17.77344 h 4.3164 z m -8.0664,-3.125 v -13.125 l -11.26953,13.125 z"
         style="font-style:normal;font-variant:normal;font-weight:normal;font-stretch:normal;font-family:sans-serif;-inkscape-font-specification:sans-serif"
         id="path4633"
         inkscape:connector-curvature="0" />
      <path
         d="m 505.86719,155.89062 q 0,2.03125 -0.74219,3.88672 -0.74219,1.85547 -2.03125,3.125 -1.40625,1.36719 -3.35938,2.10938 -1.93359,0.72265 -4.49218,0.72265 -2.38282,0 -4.58985,-0.50781 -2.20703,-0.48828 -3.73047,-1.1914 v -4.1211 h 0.27344 q 1.60156,1.01563 3.75,1.73828 2.14844,0.70313 4.21875,0.70313 1.38672,0 2.67578,-0.39063 1.3086,-0.39062 2.32422,-1.36718 0.85938,-0.83985 1.28906,-2.01172 0.44922,-1.17188 0.44922,-2.71485 0,-1.5039 -0.52734,-2.53906 -0.50781,-1.03516 -1.42578,-1.66016 -1.01563,-0.74218 -2.48047,-1.03515 -1.44531,-0.3125 -3.24219,-0.3125 -1.71875,0 -3.32031,0.23437 -1.58203,0.23438 -2.73438,0.46875 v -14.98047 h 17.5 v 3.41797 h -13.73046 v 7.73438 q 0.83984,-0.0781 1.71875,-0.11719 0.8789,-0.0391 1.52343,-0.0391 2.36328,0 4.14063,0.41015 1.77734,0.39063 3.26172,1.40625 1.5625,1.07422 2.42187,2.77344 0.85938,1.69922 0.85938,4.25781 z"
         style="font-style:normal;font-variant:normal;font-weight:normal;font-stretch:normal;font-family:sans-serif;-inkscape-font-specification:sans-serif"
         id="path4635"
         inkscape:connector-curvature="0" />
      <path
         d="m 535.57422,165.12891 h -4.1211 l -2.85156,-8.10547 h -12.57812 l -2.85157,8.10547 h -3.92578 l 10.58594,-29.08204 h 5.15625 z m -8.16406,-11.42579 -5.09766,-14.27734 -5.11719,14.27734 z"
         style="font-style:normal;font-variant:normal;font-weight:normal;font-stretch:normal;font-family:sans-serif;-inkscape-font-specification:sans-serif"
         id="path4637"
         inkscape:connector-curvature="0" />
      <path
         d="m 559.57812,156.94531 h -4.3164 v 8.1836 h -3.75 v -8.1836 h -13.92578 v -4.49219 l 14.08203,-16.40625 h 3.59375 v 17.77344 h 4.3164 z m -8.0664,-3.125 v -13.125 l -11.26953,13.125 z"
         style="font-style:normal;font-variant:normal;font-weight:normal;font-stretch:normal;font-family:sans-serif;-inkscape-font-specification:sans-serif"
         id="path4639"
         inkscape:connector-curvature="0" />
    </g>
    <g
       aria-label="#D778B8"
       transform="matrix(0.26458333,0,0,0.26458333,9.5529073,63.377213)"
       style="font-style:normal;font-variant:normal;font-weight:normal;font-stretch:normal;font-size:40px;line-height:1.25;font-family:Magneto;-inkscape-font-specification:Magneto;letter-spacing:0px;word-spacing:0px;fill:#000000;fill-opacity:1;stroke:none"
       id="flowRoot4541-1"
       inkscape:export-xdpi="96"
       inkscape:export-ydpi="96">
      <path
         d="m 403.21094,146.92578 h -6.50391 l -1.79687,7.34375 h 6.01562 v 2.63672 h -6.69922 l -2.03125,8.22266 h -2.51953 l 2.03125,-8.22266 h -5.27344 l -2.03125,8.22266 h -2.51953 l 2.03125,-8.22266 h -5.82031 v -2.63672 h 6.50391 l 1.79687,-7.34375 h -6.01562 v -2.63672 h 6.69921 l 2.05079,-8.24219 h 2.51953 l -2.05078,8.24219 h 5.27343 l 2.05078,-8.24219 h 2.51954 l -2.05079,8.24219 h 5.82032 z m -8.96485,-0.0391 h -5.35156 l -1.83594,7.42187 h 5.35157 z"
         style="font-style:normal;font-variant:normal;font-weight:normal;font-stretch:normal;font-family:sans-serif;-inkscape-font-specification:sans-serif"
         id="path4612"
         inkscape:connector-curvature="0" />
      <path
         d="m 435.49609,150.61719 q 0,3.96484 -1.73828,7.1875 -1.71875,3.22265 -4.58984,5 -1.99219,1.23047 -4.45313,1.77734 -2.4414,0.54688 -6.44531,0.54688 h -7.34375 v -29.08204 h 7.26563 q 4.25781,0 6.75781,0.625 2.51953,0.60547 4.25781,1.67969 2.96875,1.85547 4.62891,4.94141 1.66015,3.08594 1.66015,7.32422 z m -4.04297,-0.0586 q 0,-3.41797 -1.1914,-5.76172 -1.19141,-2.34375 -3.55469,-3.6914 -1.71875,-0.97656 -3.65234,-1.34766 -1.9336,-0.39062 -4.62891,-0.39062 h -3.63281 v 22.4414 h 3.63281 q 2.79297,0 4.86328,-0.41015 2.08985,-0.41016 3.82813,-1.52344 2.16797,-1.38672 3.24218,-3.65234 1.09375,-2.26563 1.09375,-5.66407 z"
         style="font-style:normal;font-variant:normal;font-weight:normal;font-stretch:normal;font-family:sans-serif;-inkscape-font-specification:sans-serif"
         id="path4614"
         inkscape:connector-curvature="0" />
      <path
         d="M 460.78906,140.40234 447.625,165.12891 h -4.17969 l 14.00391,-25.66407 h -16.5625 v -3.41797 h 19.90234 z"
         style="font-style:normal;font-variant:normal;font-weight:normal;font-stretch:normal;font-family:sans-serif;-inkscape-font-specification:sans-serif"
         id="path4616"
         inkscape:connector-curvature="0" />
      <path
         d="m 486.25781,140.40234 -13.16406,24.72657 h -4.17969 l 14.00391,-25.66407 h -16.5625 v -3.41797 h 19.90234 z"
         style="font-style:normal;font-variant:normal;font-weight:normal;font-stretch:normal;font-family:sans-serif;-inkscape-font-specification:sans-serif"
         id="path4618"
         inkscape:connector-curvature="0" />
      <path
         d="m 511.86328,157.02344 q 0,3.76953 -2.94922,6.26953 -2.92969,2.5 -7.38281,2.5 -4.72656,0 -7.53906,-2.44141 -2.79297,-2.4414 -2.79297,-6.25 0,-2.42187 1.40625,-4.375 1.40625,-1.97265 3.96484,-3.125 v -0.11719 q -2.34375,-1.25 -3.47656,-2.73437 -1.11328,-1.48438 -1.11328,-3.71094 0,-3.28125 2.69531,-5.46875 2.69531,-2.1875 6.85547,-2.1875 4.35547,0 6.95312,2.08985 2.59766,2.08984 2.59766,5.3125 0,1.97265 -1.23047,3.88671 -1.23047,1.89454 -3.61328,2.96875 v 0.11719 q 2.73438,1.17188 4.17969,2.89063 1.44531,1.71875 1.44531,4.375 z m -4.62891,-14.19922 q 0,-2.08985 -1.62109,-3.32031 -1.60156,-1.25 -4.10156,-1.25 -2.46094,0 -4.04297,1.17187 -1.5625,1.17188 -1.5625,3.16406 0,1.40625 0.78125,2.44141 0.80078,1.01562 2.40234,1.81641 0.72266,0.35156 2.07032,0.91796 1.36718,0.56641 2.65625,0.9375 1.93359,-1.28906 2.67578,-2.67578 0.74218,-1.38672 0.74218,-3.20312 z m 0.60547,14.57031 q 0,-1.79687 -0.80078,-2.87109 -0.78125,-1.09375 -3.08594,-2.1875 -0.91796,-0.42969 -2.01171,-0.80078 -1.09375,-0.3711 -2.91016,-1.03516 -1.75781,0.95703 -2.83203,2.59766 -1.05469,1.64062 -1.05469,3.71093 0,2.63672 1.81641,4.35547 1.8164,1.71875 4.60937,1.71875 2.85156,0 4.55078,-1.46484 1.71875,-1.46485 1.71875,-4.02344 z"
         style="font-style:normal;font-variant:normal;font-weight:normal;font-stretch:normal;font-family:sans-serif;-inkscape-font-specification:sans-serif"
         id="path4620"
         inkscape:connector-curvature="0" />
      <path
         d="m 540.125,156.18359 q 0,2.16797 -0.82031,3.82813 -0.82032,1.66015 -2.20703,2.73437 -1.64063,1.28907 -3.61329,1.83594 -1.95312,0.54688 -4.98046,0.54688 h -10.3125 v -29.08204 h 8.61328 q 3.18359,0 4.76562,0.23438 1.58203,0.23437 3.02735,0.97656 1.60156,0.83985 2.32421,2.16797 0.72266,1.30859 0.72266,3.14453 0,2.07031 -1.05469,3.53516 -1.05468,1.44531 -2.8125,2.32422 v 0.15625 q 2.94922,0.60547 4.64844,2.59765 1.69922,1.97266 1.69922,5 z m -6.50391,-13.10547 q 0,-1.05468 -0.35156,-1.77734 -0.35156,-0.72266 -1.13281,-1.17187 -0.91797,-0.52735 -2.22656,-0.64454 -1.3086,-0.13671 -3.24219,-0.13671 h -4.60938 v 8.39843 h 5 q 1.81641,0 2.89063,-0.17578 1.07422,-0.19531 1.99219,-0.78125 0.91796,-0.58594 1.28906,-1.5039 0.39062,-0.9375 0.39062,-2.20704 z m 2.48047,13.26172 q 0,-1.75781 -0.52734,-2.79297 -0.52735,-1.03515 -1.91406,-1.75781 -0.9375,-0.48828 -2.28516,-0.625 -1.32813,-0.15625 -3.24219,-0.15625 h -6.07422 v 10.82031 h 5.11719 q 2.53906,0 4.16016,-0.2539 1.62109,-0.27344 2.65625,-0.97656 1.09375,-0.76172 1.60156,-1.73829 0.50781,-0.97656 0.50781,-2.51953 z"
         style="font-style:normal;font-variant:normal;font-weight:normal;font-stretch:normal;font-family:sans-serif;-inkscape-font-specification:sans-serif"
         id="path4622"
         inkscape:connector-curvature="0" />
      <path
         d="m 564.75391,157.02344 q 0,3.76953 -2.94922,6.26953 -2.92969,2.5 -7.38282,2.5 -4.72656,0 -7.53906,-2.44141 -2.79297,-2.4414 -2.79297,-6.25 0,-2.42187 1.40625,-4.375 1.40625,-1.97265 3.96485,-3.125 v -0.11719 q -2.34375,-1.25 -3.47657,-2.73437 -1.11328,-1.48438 -1.11328,-3.71094 0,-3.28125 2.69532,-5.46875 2.69531,-2.1875 6.85546,-2.1875 4.35547,0 6.95313,2.08985 2.59766,2.08984 2.59766,5.3125 0,1.97265 -1.23047,3.88671 -1.23047,1.89454 -3.61328,2.96875 v 0.11719 q 2.73437,1.17188 4.17968,2.89063 1.44532,1.71875 1.44532,4.375 z M 560.125,142.82422 q 0,-2.08985 -1.62109,-3.32031 -1.60157,-1.25 -4.10157,-1.25 -2.46093,0 -4.04297,1.17187 -1.5625,1.17188 -1.5625,3.16406 0,1.40625 0.78125,2.44141 0.80079,1.01562 2.40235,1.81641 0.72265,0.35156 2.07031,0.91796 1.36719,0.56641 2.65625,0.9375 1.93359,-1.28906 2.67578,-2.67578 0.74219,-1.38672 0.74219,-3.20312 z m 0.60547,14.57031 q 0,-1.79687 -0.80078,-2.87109 -0.78125,-1.09375 -3.08594,-2.1875 -0.91797,-0.42969 -2.01172,-0.80078 -1.09375,-0.3711 -2.91016,-1.03516 -1.75781,0.95703 -2.83203,2.59766 -1.05468,1.64062 -1.05468,3.71093 0,2.63672 1.8164,4.35547 1.81641,1.71875 4.60938,1.71875 2.85156,0 4.55078,-1.46484 1.71875,-1.46485 1.71875,-4.02344 z"
         style="font-style:normal;font-variant:normal;font-weight:normal;font-stretch:normal;font-family:sans-serif;-inkscape-font-specification:sans-serif"
         id="path4624"
         inkscape:connector-curvature="0" />
    </g>
    <g
       aria-label="$magenta"
       style="font-style:normal;font-variant:normal;font-weight:normal;font-stretch:normal;font-size:10.58333302px;line-height:1.25;font-family:Arial;-inkscape-font-specification:Arial;letter-spacing:0px;word-spacing:0px;fill:#000000;fill-opacity:1;stroke:none;stroke-width:0.26458332"
       id="text870"
       inkscape:export-xdpi="96"
       inkscape:export-ydpi="96">
      <path
         d="m 112.62657,56.941565 v -0.930176 q -0.69763,-0.08785 -1.13688,-0.310058 -0.43408,-0.227376 -0.75448,-0.728638 -0.31522,-0.501261 -0.3669,-1.224731 l 0.93534,-0.1757 q 0.10853,0.749308 0.38241,1.100708 0.39274,0.496094 0.94051,0.552938 v -2.96106 q -0.57361,-0.10852 -1.17305,-0.444417 -0.44442,-0.248047 -0.6873,-0.687297 -0.23771,-0.439249 -0.23771,-0.997355 0,-0.992187 0.7028,-1.607137 0.47025,-0.413411 1.39526,-0.506429 v -0.444417 h 0.54777 v 0.444417 q 0.81132,0.07751 1.28674,0.475423 0.60979,0.506429 0.73381,1.390096 l -0.96118,0.144694 q -0.0827,-0.54777 -0.34623,-0.837158 -0.25839,-0.294555 -0.71314,-0.387573 v 2.682007 q 0.7028,0.1757 0.93018,0.273885 0.43408,0.191203 0.70796,0.465088 0.27389,0.273885 0.41858,0.651123 0.14987,0.377238 0.14987,0.816487 0,0.96635 -0.61495,1.612305 -0.61495,0.645955 -1.59164,0.692464 v 0.940511 z m 0,-8.144205 q -0.5426,0.08268 -0.85783,0.434082 -0.31006,0.351399 -0.31006,0.83199 0,0.475423 0.26355,0.795817 0.26872,0.320394 0.90434,0.511597 z m 0.54777,6.428548 q 0.5426,-0.06718 0.894,-0.470256 0.35657,-0.403076 0.35657,-0.997355 0,-0.506429 -0.25321,-0.81132 -0.24805,-0.310059 -0.99736,-0.552938 z"
         style="font-style:normal;font-variant:normal;font-weight:normal;font-stretch:normal;font-family:Arial;-inkscape-font-specification:Arial;stroke-width:0.26458332"
         id="path931" />
      <path
         d="m 116.57982,55.851192 v -5.488036 h 0.83199 v 0.769978 q 0.25838,-0.403076 0.6873,-0.645955 0.42891,-0.248047 0.97668,-0.248047 0.60978,0 0.99736,0.253215 0.39274,0.253214 0.55293,0.707967 0.65113,-0.961182 1.69499,-0.961182 0.81649,0 1.25574,0.454753 0.43925,0.449585 0.43925,1.390096 v 3.767211 h -0.92501 v -3.457153 q 0,-0.558105 -0.093,-0.800984 -0.0879,-0.248047 -0.32556,-0.397909 -0.23771,-0.149862 -0.55811,-0.149862 -0.57877,0 -0.96118,0.387574 -0.3824,0.382405 -0.3824,1.229899 v 3.188435 h -0.93018 v -3.565673 q 0,-0.620117 -0.22737,-0.930176 -0.22738,-0.310059 -0.74415,-0.310059 -0.39274,0 -0.72863,0.206706 -0.33073,0.206706 -0.48059,0.604614 -0.14987,0.397909 -0.14987,1.147217 v 2.847371 z"
         style="font-style:normal;font-variant:normal;font-weight:normal;font-stretch:normal;font-family:Arial;-inkscape-font-specification:Arial;stroke-width:0.26458332"
         id="path933" />
      <path
         d="m 128.98733,55.174231 q -0.51676,0.43925 -0.99736,0.620117 -0.47542,0.180868 -1.02319,0.180868 -0.90434,0 -1.3901,-0.43925 -0.48575,-0.444417 -0.48575,-1.131714 0,-0.403076 0.18086,-0.733805 0.18604,-0.335897 0.48059,-0.537435 0.29973,-0.201538 0.6718,-0.304891 0.27388,-0.07235 0.82682,-0.139526 1.12655,-0.134359 1.65881,-0.320394 0.005,-0.191203 0.005,-0.242879 0,-0.568441 -0.26355,-0.800985 -0.35656,-0.315226 -1.05936,-0.315226 -0.65629,0 -0.97152,0.232544 -0.31006,0.227376 -0.45992,0.81132 l -0.90951,-0.124024 q 0.12403,-0.583943 0.40825,-0.940511 0.28422,-0.361735 0.82165,-0.552937 0.53744,-0.196371 1.2454,-0.196371 0.7028,0 1.14205,0.165365 0.43925,0.165364 0.64596,0.418579 0.2067,0.248047 0.28939,0.630452 0.0465,0.237712 0.0465,0.857829 v 1.240234 q 0,1.297079 0.0568,1.643311 0.062,0.341064 0.23771,0.65629 h -0.97152 q -0.14469,-0.289388 -0.18603,-0.676961 z m -0.0775,-2.077392 q -0.50642,0.206705 -1.51928,0.351399 -0.57361,0.08268 -0.81132,0.186036 -0.23771,0.103352 -0.3669,0.304891 -0.1292,0.19637 -0.1292,0.439249 0,0.37207 0.27906,0.620117 0.28422,0.248047 0.82682,0.248047 0.53743,0 0.95601,-0.232544 0.41858,-0.237711 0.61495,-0.645955 0.14986,-0.315226 0.14986,-0.930176 z"
         style="font-style:normal;font-variant:normal;font-weight:normal;font-stretch:normal;font-family:Arial;-inkscape-font-specification:Arial;stroke-width:0.26458332"
         id="path935" />
      <path
         d="m 131.12673,56.305945 0.90434,0.134359 q 0.0568,0.418579 0.31523,0.609782 0.34623,0.258382 0.94568,0.258382 0.64595,0 0.99735,-0.258382 0.3514,-0.258382 0.47542,-0.72347 0.0724,-0.284221 0.0672,-1.193726 -0.60978,0.718302 -1.51928,0.718302 -1.13172,0 -1.75183,-0.816487 -0.62012,-0.816488 -0.62012,-1.958537 0,-0.785482 0.28422,-1.44694 0.28422,-0.666626 0.82165,-1.028361 0.54261,-0.361735 1.27124,-0.361735 0.97152,0 1.60197,0.785482 v -0.661458 h 0.85783 v 4.743896 q 0,1.281575 -0.26355,1.813843 -0.25838,0.537434 -0.82682,0.847493 -0.56327,0.310059 -1.3901,0.310059 -0.98185,0 -1.58646,-0.444418 -0.60462,-0.439249 -0.58395,-1.328084 z m 0.76998,-3.296956 q 0,1.080037 0.42892,1.576131 0.42891,0.496094 1.07487,0.496094 0.64078,0 1.07487,-0.490926 0.43408,-0.496094 0.43408,-1.550293 0,-1.007691 -0.44959,-1.519287 -0.44441,-0.511597 -1.07487,-0.511597 -0.62011,0 -1.0542,0.506429 -0.43408,0.501261 -0.43408,1.493449 z"
         style="font-style:normal;font-variant:normal;font-weight:normal;font-stretch:normal;font-family:Arial;-inkscape-font-specification:Arial;stroke-width:0.26458332"
         id="path937" />
      <path
         d="m 140.94526,54.083859 0.96118,0.118855 q -0.22738,0.842326 -0.84233,1.307414 -0.61495,0.465088 -1.57096,0.465088 -1.20406,0 -1.91203,-0.738973 -0.7028,-0.744141 -0.7028,-2.08256 0,-1.384929 0.71314,-2.14974 0.71313,-0.764811 1.85001,-0.764811 1.10071,0 1.79834,0.749308 0.69763,0.749309 0.69763,2.108399 0,0.08268 -0.005,0.248047 h -4.09278 q 0.0517,0.904337 0.5116,1.384928 0.45992,0.480591 1.14722,0.480591 0.51159,0 0.87333,-0.268718 0.36173,-0.268717 0.57361,-0.857828 z m -3.05408,-1.503785 h 3.06441 q -0.062,-0.692464 -0.3514,-1.038696 -0.44442,-0.537435 -1.15238,-0.537435 -0.64079,0 -1.08004,0.428915 -0.43408,0.428914 -0.48059,1.147216 z"
         style="font-style:normal;font-variant:normal;font-weight:normal;font-stretch:normal;font-family:Arial;-inkscape-font-specification:Arial;stroke-width:0.26458332"
         id="path939" />
      <path
         d="m 143.07949,55.851192 v -5.488036 h 0.83716 v 0.780314 q 0.60461,-0.904338 1.74666,-0.904338 0.4961,0 0.90951,0.180868 0.41858,0.175699 0.62528,0.465087 0.20671,0.289388 0.28939,0.687297 0.0517,0.258382 0.0517,0.904338 v 3.37447 h -0.93018 v -3.338297 q 0,-0.568441 -0.10852,-0.847493 -0.10852,-0.284221 -0.38757,-0.449585 -0.27389,-0.170533 -0.64596,-0.170533 -0.59428,0 -1.02836,0.377238 -0.42891,0.377238 -0.42891,1.431437 v 2.997233 z"
         style="font-style:normal;font-variant:normal;font-weight:normal;font-stretch:normal;font-family:Arial;-inkscape-font-specification:Arial;stroke-width:0.26458332"
         id="path941" />
      <path
         d="m 151.00149,55.019202 0.13436,0.821655 q -0.39274,0.08268 -0.7028,0.08268 -0.50643,0 -0.78548,-0.160196 -0.27906,-0.160197 -0.39275,-0.41858 -0.11368,-0.263549 -0.11368,-1.100708 v -3.157429 h -0.68213 v -0.72347 h 0.68213 v -1.359091 l 0.925,-0.558105 v 1.917196 h 0.93535 v 0.72347 h -0.93535 v 3.209106 q 0,0.397908 0.0465,0.511597 0.0517,0.113688 0.1602,0.180867 0.11369,0.06718 0.32039,0.06718 0.15503,0 0.40825,-0.03617 z"
         style="font-style:normal;font-variant:normal;font-weight:normal;font-stretch:normal;font-family:Arial;-inkscape-font-specification:Arial;stroke-width:0.26458332"
         id="path943" />
      <path
         d="m 155.487,55.174231 q -0.51676,0.43925 -0.99735,0.620117 -0.47543,0.180868 -1.0232,0.180868 -0.90433,0 -1.39009,-0.43925 -0.48576,-0.444417 -0.48576,-1.131714 0,-0.403076 0.18087,-0.733805 0.18603,-0.335897 0.48059,-0.537435 0.29972,-0.201538 0.67179,-0.304891 0.27389,-0.07235 0.82683,-0.139526 1.12654,-0.134359 1.65881,-0.320394 0.005,-0.191203 0.005,-0.242879 0,-0.568441 -0.26355,-0.800985 -0.35657,-0.315226 -1.05937,-0.315226 -0.65629,0 -0.97152,0.232544 -0.31006,0.227376 -0.45992,0.81132 l -0.9095,-0.124024 q 0.12402,-0.583943 0.40824,-0.940511 0.28422,-0.361735 0.82166,-0.552937 0.53743,-0.196371 1.2454,-0.196371 0.7028,0 1.14205,0.165365 0.43925,0.165364 0.64595,0.418579 0.20671,0.248047 0.28939,0.630452 0.0465,0.237712 0.0465,0.857829 v 1.240234 q 0,1.297079 0.0568,1.643311 0.062,0.341064 0.23772,0.65629 h -0.97152 q -0.1447,-0.289388 -0.18604,-0.676961 z m -0.0775,-2.077392 q -0.50643,0.206705 -1.51929,0.351399 -0.57361,0.08268 -0.81132,0.186036 -0.23771,0.103352 -0.3669,0.304891 -0.12919,0.19637 -0.12919,0.439249 0,0.37207 0.27905,0.620117 0.28422,0.248047 0.82682,0.248047 0.53744,0 0.95602,-0.232544 0.41858,-0.237711 0.61495,-0.645955 0.14986,-0.315226 0.14986,-0.930176 z"
         style="font-style:normal;font-variant:normal;font-weight:normal;font-stretch:normal;font-family:Arial;-inkscape-font-specification:Arial;stroke-width:0.26458332"
         id="path945" />
    </g>
    <g
       aria-label="$pink"
       style="font-style:normal;font-variant:normal;font-weight:normal;font-stretch:normal;font-size:10.58333302px;line-height:1.25;font-family:Arial;-inkscape-font-specification:Arial;letter-spacing:0px;word-spacing:0px;fill:#000000;fill-opacity:1;stroke:none;stroke-width:0.26458332"
       id="text870-9"
       inkscape:export-xdpi="96"
       inkscape:export-ydpi="96">
      <path
         d="m 123.88502,120.06285 v -0.93018 q -0.69763,-0.0879 -1.13688,-0.31006 -0.43409,-0.22737 -0.75448,-0.72864 -0.31523,-0.50126 -0.3669,-1.22473 l 0.93534,-0.1757 q 0.10852,0.74931 0.38241,1.10071 0.39274,0.49609 0.94051,0.55294 v -2.96106 q -0.57361,-0.10852 -1.17306,-0.44442 -0.44441,-0.24805 -0.68729,-0.68729 -0.23772,-0.43925 -0.23772,-0.99736 0,-0.99219 0.7028,-1.60714 0.47026,-0.41341 1.39527,-0.50643 v -0.44441 h 0.54777 v 0.44441 q 0.81132,0.0775 1.28674,0.47543 0.60978,0.50643 0.73381,1.39009 l -0.96119,0.1447 q -0.0827,-0.54777 -0.34623,-0.83716 -0.25838,-0.29456 -0.71313,-0.38757 v 2.682 q 0.7028,0.1757 0.93017,0.27389 0.43409,0.1912 0.70797,0.46509 0.27389,0.27388 0.41858,0.65112 0.14986,0.37724 0.14986,0.81649 0,0.96635 -0.61495,1.6123 -0.61495,0.64596 -1.59163,0.69246 v 0.94052 z m 0,-8.14421 q -0.54261,0.0827 -0.85783,0.43408 -0.31006,0.3514 -0.31006,0.83199 0,0.47543 0.26355,0.79582 0.26872,0.32039 0.90434,0.5116 z m 0.54777,6.42855 q 0.5426,-0.0672 0.894,-0.47026 0.35657,-0.40307 0.35657,-0.99735 0,-0.50643 -0.25322,-0.81132 -0.24804,-0.31006 -0.99735,-0.55294 z"
         style="font-style:normal;font-variant:normal;font-weight:normal;font-stretch:normal;font-family:Arial;-inkscape-font-specification:Arial;stroke-width:0.26458332"
         id="path948" />
      <path
         d="m 127.83826,121.0757 v -7.59126 h 0.8475 v 0.71313 q 0.29972,-0.41858 0.67696,-0.62528 0.37724,-0.21188 0.91467,-0.21188 0.7028,0 1.24024,0.36174 0.53743,0.36173 0.81132,1.02319 0.27388,0.65629 0.27388,1.44177 0,0.84233 -0.30489,1.51929 -0.29972,0.67179 -0.8785,1.03353 -0.57361,0.35657 -1.20923,0.35657 -0.46509,0 -0.83716,-0.19637 -0.3669,-0.19637 -0.60461,-0.4961 v 2.67167 z m 0.84233,-4.81624 q 0,1.05937 0.42891,1.5658 0.42892,0.50643 1.0387,0.50643 0.62012,0 1.05937,-0.52194 0.44442,-0.5271 0.44442,-1.6278 0,-1.04904 -0.43409,-1.57097 -0.42891,-0.52193 -1.02836,-0.52193 -0.59428,0 -1.0542,0.55811 -0.45475,0.55293 -0.45475,1.6123 z"
         style="font-style:normal;font-variant:normal;font-weight:normal;font-stretch:normal;font-family:Arial;-inkscape-font-specification:Arial;stroke-width:0.26458332"
         id="path950" />
      <path
         d="m 133.73455,112.46641 v -1.0697 h 0.93017 v 1.0697 z m 0,6.50606 v -5.48803 h 0.93017 v 5.48803 z"
         style="font-style:normal;font-variant:normal;font-weight:normal;font-stretch:normal;font-family:Arial;-inkscape-font-specification:Arial;stroke-width:0.26458332"
         id="path952" />
      <path
         d="m 136.08582,118.97247 v -5.48803 h 0.83716 v 0.78031 q 0.60462,-0.90434 1.74666,-0.90434 0.4961,0 0.90951,0.18087 0.41858,0.1757 0.62528,0.46509 0.20671,0.28939 0.28939,0.68729 0.0517,0.25839 0.0517,0.90434 v 3.37447 h -0.93018 v -3.33829 q 0,-0.56845 -0.10852,-0.8475 -0.10852,-0.28422 -0.38757,-0.44958 -0.27389,-0.17053 -0.64596,-0.17053 -0.59427,0 -1.02836,0.37723 -0.42891,0.37724 -0.42891,1.43144 v 2.99723 z"
         style="font-style:normal;font-variant:normal;font-weight:normal;font-stretch:normal;font-family:Arial;-inkscape-font-specification:Arial;stroke-width:0.26458332"
         id="path954" />
      <path
         d="m 141.9821,118.97247 v -7.57576 h 0.93018 v 4.32015 l 2.20142,-2.23242 h 1.20406 l -2.09807,2.03605 2.30994,3.45198 h -1.14722 l -1.81384,-2.80603 -0.65629,0.63046 v 2.17557 z"
         style="font-style:normal;font-variant:normal;font-weight:normal;font-stretch:normal;font-family:Arial;-inkscape-font-specification:Arial;stroke-width:0.26458332"
         id="path956" />
    </g>
    <g
       aria-label="$purple"
       style="font-style:normal;font-variant:normal;font-weight:normal;font-stretch:normal;font-size:10.58333302px;line-height:1.25;font-family:Arial;-inkscape-font-specification:Arial;letter-spacing:0px;word-spacing:0px;fill:#000000;fill-opacity:1;stroke:none;stroke-width:0.26458332"
       id="text870-9-7"
       inkscape:export-xdpi="96"
       inkscape:export-ydpi="96">
      <path
         d="m 121.34252,187.40463 v -0.93018 q -0.69763,-0.0879 -1.13688,-0.31006 -0.43408,-0.22737 -0.75448,-0.72863 -0.31522,-0.50127 -0.3669,-1.22474 l 0.93534,-0.1757 q 0.10853,0.74931 0.38241,1.10071 0.39274,0.4961 0.94051,0.55294 v -2.96106 q -0.57361,-0.10852 -1.17305,-0.44442 -0.44442,-0.24804 -0.6873,-0.68729 -0.23771,-0.43925 -0.23771,-0.99736 0,-0.99219 0.7028,-1.60714 0.47025,-0.41341 1.39526,-0.50642 v -0.44442 h 0.54777 v 0.44442 q 0.81132,0.0775 1.28674,0.47542 0.60979,0.50643 0.73381,1.39009 l -0.96118,0.1447 q -0.0827,-0.54777 -0.34623,-0.83716 -0.25839,-0.29456 -0.71314,-0.38757 v 2.682 q 0.7028,0.1757 0.93018,0.27389 0.43408,0.1912 0.70796,0.46509 0.27389,0.27388 0.41858,0.65112 0.14987,0.37724 0.14987,0.81649 0,0.96635 -0.61495,1.6123 -0.61495,0.64596 -1.59164,0.69247 v 0.94051 z m 0,-8.14421 q -0.5426,0.0827 -0.85783,0.43408 -0.31006,0.3514 -0.31006,0.83199 0,0.47543 0.26355,0.79582 0.26872,0.3204 0.90434,0.5116 z m 0.54777,6.42855 q 0.5426,-0.0672 0.894,-0.47026 0.35657,-0.40307 0.35657,-0.99735 0,-0.50643 -0.25321,-0.81132 -0.24805,-0.31006 -0.99736,-0.55294 z"
         style="font-style:normal;font-variant:normal;font-weight:normal;font-stretch:normal;font-family:Arial;-inkscape-font-specification:Arial;stroke-width:0.26458332"
         id="path959" />
      <path
         d="m 125.29577,188.41749 v -7.59127 h 0.84749 v 0.71313 q 0.29973,-0.41858 0.67696,-0.62528 0.37724,-0.21188 0.91468,-0.21188 0.7028,0 1.24023,0.36174 0.53744,0.36173 0.81132,1.02319 0.27389,0.65629 0.27389,1.44178 0,0.84232 -0.3049,1.51928 -0.29972,0.6718 -0.87849,1.03353 -0.57361,0.35657 -1.20923,0.35657 -0.46509,0 -0.83716,-0.19637 -0.3669,-0.19637 -0.60462,-0.4961 v 2.67168 z m 0.84232,-4.81625 q 0,1.05937 0.42892,1.5658 0.42891,0.50643 1.0387,0.50643 0.62011,0 1.05936,-0.52193 0.44442,-0.5271 0.44442,-1.62781 0,-1.04903 -0.43408,-1.57097 -0.42892,-0.52193 -1.02836,-0.52193 -0.59428,0 -1.0542,0.55811 -0.45476,0.55294 -0.45476,1.6123 z"
         style="font-style:normal;font-variant:normal;font-weight:normal;font-stretch:normal;font-family:Arial;-inkscape-font-specification:Arial;stroke-width:0.26458332"
         id="path961" />
      <path
         d="m 134.78356,186.31425 v -0.80615 q -0.64079,0.93018 -1.74149,0.93018 -0.48576,0 -0.90951,-0.18604 -0.41858,-0.18603 -0.62528,-0.46508 -0.20154,-0.28423 -0.28422,-0.69247 -0.0568,-0.27388 -0.0568,-0.86816 v -3.40031 h 0.93018 v 3.04374 q 0,0.72864 0.0568,0.98185 0.0879,0.3669 0.37207,0.57878 0.28422,0.2067 0.7028,0.2067 0.41858,0 0.78548,-0.21187 0.36691,-0.21704 0.51677,-0.58394 0.15503,-0.37207 0.15503,-1.07487 v -2.94039 h 0.93017 v 5.48803 z"
         style="font-style:normal;font-variant:normal;font-weight:normal;font-stretch:normal;font-family:Arial;-inkscape-font-specification:Arial;stroke-width:0.26458332"
         id="path963" />
      <path
         d="m 137.06766,186.31425 v -5.48803 h 0.83716 v 0.83199 q 0.32039,-0.58395 0.58911,-0.76998 0.27388,-0.18604 0.59945,-0.18604 0.47025,0 0.95601,0.29973 l -0.32039,0.86299 q -0.34107,-0.20153 -0.68213,-0.20153 -0.30489,0 -0.54777,0.18603 -0.24288,0.18087 -0.34623,0.50643 -0.15503,0.49609 -0.15503,1.08521 v 2.8732 z"
         style="font-style:normal;font-variant:normal;font-weight:normal;font-stretch:normal;font-family:Arial;-inkscape-font-specification:Arial;stroke-width:0.26458332"
         id="path965" />
      <path
         d="m 140.61266,188.41749 v -7.59127 h 0.8475 v 0.71313 q 0.29972,-0.41858 0.67696,-0.62528 0.37724,-0.21188 0.91467,-0.21188 0.7028,0 1.24024,0.36174 0.53743,0.36173 0.81132,1.02319 0.27388,0.65629 0.27388,1.44178 0,0.84232 -0.30489,1.51928 -0.29972,0.6718 -0.8785,1.03353 -0.57361,0.35657 -1.20923,0.35657 -0.46509,0 -0.83716,-0.19637 -0.3669,-0.19637 -0.60461,-0.4961 v 2.67168 z m 0.84233,-4.81625 q 0,1.05937 0.42891,1.5658 0.42892,0.50643 1.0387,0.50643 0.62012,0 1.05937,-0.52193 0.44441,-0.5271 0.44441,-1.62781 0,-1.04903 -0.43408,-1.57097 -0.42891,-0.52193 -1.02836,-0.52193 -0.59428,0 -1.0542,0.55811 -0.45475,0.55294 -0.45475,1.6123 z"
         style="font-style:normal;font-variant:normal;font-weight:normal;font-stretch:normal;font-family:Arial;-inkscape-font-specification:Arial;stroke-width:0.26458332"
         id="path967" />
      <path
         d="m 146.48311,186.31425 v -7.57576 h 0.93017 v 7.57576 z"
         style="font-style:normal;font-variant:normal;font-weight:normal;font-stretch:normal;font-family:Arial;-inkscape-font-specification:Arial;stroke-width:0.26458332"
         id="path969" />
      <path
         d="m 152.6171,184.54692 0.96118,0.11886 q -0.22738,0.84232 -0.84233,1.30741 -0.61495,0.46509 -1.57096,0.46509 -1.20406,0 -1.91203,-0.73897 -0.7028,-0.74415 -0.7028,-2.08256 0,-1.38493 0.71314,-2.14974 0.71313,-0.76482 1.85001,-0.76482 1.10071,0 1.79834,0.74931 0.69764,0.74931 0.69764,2.1084 0,0.0827 -0.005,0.24805 h -4.09278 q 0.0517,0.90434 0.5116,1.38493 0.45992,0.48059 1.14722,0.48059 0.51159,0 0.87333,-0.26872 0.36173,-0.26872 0.57361,-0.85783 z m -3.05408,-1.50378 h 3.06441 q -0.062,-0.69247 -0.3514,-1.0387 -0.44441,-0.53743 -1.15238,-0.53743 -0.64079,0 -1.08004,0.42891 -0.43408,0.42891 -0.48059,1.14722 z"
         style="font-style:normal;font-variant:normal;font-weight:normal;font-stretch:normal;font-family:Arial;-inkscape-font-specification:Arial;stroke-width:0.26458332"
         id="path971" />
    </g>
    <g
       aria-label="$blue"
       style="font-style:normal;font-variant:normal;font-weight:normal;font-stretch:normal;font-size:10.58333302px;line-height:1.25;font-family:Arial;-inkscape-font-specification:Arial;letter-spacing:0px;word-spacing:0px;fill:#000000;fill-opacity:1;stroke:none;stroke-width:0.26458332"
       id="text870-9-7-0"
       inkscape:export-xdpi="96"
       inkscape:export-ydpi="96">
      <path
         d="m 125.98088,253.17248 v -0.93018 q -0.69763,-0.0879 -1.13688,-0.31005 -0.43408,-0.22738 -0.75448,-0.72864 -0.31522,-0.50126 -0.3669,-1.22473 l 0.93534,-0.1757 q 0.10852,0.74931 0.38241,1.1007 0.39274,0.4961 0.94051,0.55294 v -2.96106 q -0.57361,-0.10852 -1.17305,-0.44441 -0.44442,-0.24805 -0.6873,-0.6873 -0.23771,-0.43925 -0.23771,-0.99736 0,-0.99218 0.7028,-1.60713 0.47025,-0.41341 1.39526,-0.50643 v -0.44442 h 0.54777 v 0.44442 q 0.81132,0.0775 1.28674,0.47542 0.60979,0.50643 0.73381,1.3901 l -0.96118,0.14469 q -0.0827,-0.54777 -0.34623,-0.83716 -0.25839,-0.29455 -0.71314,-0.38757 v 2.68201 q 0.7028,0.1757 0.93018,0.27388 0.43408,0.1912 0.70796,0.46509 0.27389,0.27388 0.41858,0.65112 0.14986,0.37724 0.14986,0.81649 0,0.96635 -0.61495,1.61231 -0.61494,0.64595 -1.59163,0.69246 v 0.94051 z m 0,-8.14421 q -0.5426,0.0827 -0.85783,0.43409 -0.31006,0.3514 -0.31006,0.83199 0,0.47542 0.26355,0.79581 0.26872,0.3204 0.90434,0.5116 z m 0.54777,6.42855 q 0.5426,-0.0672 0.894,-0.47025 0.35657,-0.40308 0.35657,-0.99736 0,-0.50643 -0.25321,-0.81132 -0.24805,-0.31006 -0.99736,-0.55294 z"
         style="font-style:normal;font-variant:normal;font-weight:normal;font-stretch:normal;font-family:Arial;-inkscape-font-specification:Arial;stroke-width:0.26458332"
         id="path974" />
      <path
         d="m 130.79196,252.08211 h -0.863 v -7.57577 h 0.93018 v 2.70268 q 0.58911,-0.73897 1.50378,-0.73897 0.50643,0 0.95601,0.2067 0.45476,0.20154 0.74414,0.57361 0.29456,0.3669 0.45992,0.88884 0.16537,0.52193 0.16537,1.11621 0,1.41076 -0.69763,2.18074 -0.69763,0.76998 -1.67432,0.76998 -0.97152,0 -1.52445,-0.81132 z m -0.0103,-2.78536 q 0,0.98702 0.26872,1.42627 0.43925,0.7183 1.18856,0.7183 0.60978,0 1.0542,-0.5271 0.44441,-0.53227 0.44441,-1.5813 0,-1.07487 -0.42891,-1.58646 -0.42375,-0.5116 -1.02836,-0.5116 -0.60978,0 -1.0542,0.53227 -0.44442,0.5271 -0.44442,1.52962 z"
         style="font-style:normal;font-variant:normal;font-weight:normal;font-stretch:normal;font-family:Arial;-inkscape-font-specification:Arial;stroke-width:0.26458332"
         id="path976" />
      <path
         d="m 135.80457,252.08211 v -7.57577 h 0.93018 v 7.57577 z"
         style="font-style:normal;font-variant:normal;font-weight:normal;font-stretch:normal;font-family:Arial;-inkscape-font-specification:Arial;stroke-width:0.26458332"
         id="path978" />
      <path
         d="m 141.77837,252.08211 v -0.80615 q -0.64079,0.93017 -1.7415,0.93017 -0.48576,0 -0.9095,-0.18603 -0.41858,-0.18604 -0.62529,-0.46509 -0.20154,-0.28422 -0.28422,-0.69247 -0.0568,-0.27388 -0.0568,-0.86816 v -3.40031 h 0.93017 v 3.04374 q 0,0.72864 0.0568,0.98185 0.0879,0.36691 0.37207,0.57878 0.28422,0.20671 0.7028,0.20671 0.41857,0 0.78548,-0.21188 0.3669,-0.21704 0.51676,-0.58394 0.15503,-0.37207 0.15503,-1.07487 v -2.94039 h 0.93018 v 5.48804 z"
         style="font-style:normal;font-variant:normal;font-weight:normal;font-stretch:normal;font-family:Arial;-inkscape-font-specification:Arial;stroke-width:0.26458332"
         id="path980" />
      <path
         d="m 147.82968,250.31477 0.96118,0.11886 q -0.22738,0.84233 -0.84233,1.30741 -0.61495,0.46509 -1.57096,0.46509 -1.20406,0 -1.91203,-0.73897 -0.7028,-0.74414 -0.7028,-2.08256 0,-1.38493 0.71314,-2.14974 0.71313,-0.76481 1.85001,-0.76481 1.10071,0 1.79834,0.74931 0.69763,0.7493 0.69763,2.10839 0,0.0827 -0.005,0.24805 h -4.09278 q 0.0517,0.90434 0.5116,1.38493 0.45992,0.48059 1.14722,0.48059 0.51159,0 0.87333,-0.26872 0.36173,-0.26872 0.57361,-0.85783 z m -3.05408,-1.50378 h 3.06441 q -0.062,-0.69246 -0.3514,-1.0387 -0.44442,-0.53743 -1.15238,-0.53743 -0.64079,0 -1.08004,0.42891 -0.43408,0.42892 -0.48059,1.14722 z"
         style="font-style:normal;font-variant:normal;font-weight:normal;font-stretch:normal;font-family:Arial;-inkscape-font-specification:Arial;stroke-width:0.26458332"
         id="path982" />
    </g>
  </g>
</svg>
