<?xml version="1.0" encoding="UTF-8" standalone="no"?>
<!-- Created with Inkscape (http://www.inkscape.org/) -->

<svg
   xmlns:dc="http://purl.org/dc/elements/1.1/"
   xmlns:cc="http://creativecommons.org/ns#"
   xmlns:rdf="http://www.w3.org/1999/02/22-rdf-syntax-ns#"
   xmlns:svg="http://www.w3.org/2000/svg"
   xmlns="http://www.w3.org/2000/svg"
   xmlns:sodipodi="http://sodipodi.sourceforge.net/DTD/sodipodi-0.dtd"
   xmlns:inkscape="http://www.inkscape.org/namespaces/inkscape"
   width="210mm"
   height="297mm"
   viewBox="0 0 210 297"
   version="1.1"
   id="svg8"
   inkscape:version="0.92.2 (5c3e80d, 2017-08-06)"
   sodipodi:docname="colorsmmp.svg">
  <defs
     id="defs2" />
  <sodipodi:namedview
     id="base"
     pagecolor="#ffffff"
     bordercolor="#666666"
     borderopacity="1.0"
     inkscape:pageopacity="0.0"
     inkscape:pageshadow="2"
     inkscape:zoom="0.7"
     inkscape:cx="315.77265"
     inkscape:cy="375.60555"
     inkscape:document-units="mm"
     inkscape:current-layer="layer1"
     showgrid="false"
     inkscape:window-width="2400"
     inkscape:window-height="1271"
     inkscape:window-x="-9"
     inkscape:window-y="-9"
     inkscape:window-maximized="1" />
  <metadata
     id="metadata5">
    <rdf:RDF>
      <cc:Work
         rdf:about="">
        <dc:format>image/svg+xml</dc:format>
        <dc:type
           rdf:resource="http://purl.org/dc/dcmitype/StillImage" />
        <dc:title></dc:title>
      </cc:Work>
    </rdf:RDF>
  </metadata>
  <g
     inkscape:label="Ebene 1"
     inkscape:groupmode="layer"
     id="layer1">
    <rect
       style="opacity:1;fill:#892f52;fill-opacity:1;stroke:#ffffff;stroke-width:2.61937475;stroke-linejoin:bevel;stroke-miterlimit:4;stroke-dasharray:none;stroke-dashoffset:0;stroke-opacity:1"
       id="rect10"
       width="68.791664"
       height="66.523811"
       x="17.386906"
       y="13.465153"
       ry="21.922607" />
    <rect
       style="opacity:1;fill:#554fbd;fill-opacity:1;stroke:#ffffff;stroke-width:2.61937499;stroke-linejoin:bevel;stroke-miterlimit:4;stroke-dasharray:none;stroke-dashoffset:0;stroke-opacity:1"
       id="rect10-9"
       width="68.791664"
       height="66.523811"
       x="17.386909"
       y="213.0365"
       ry="21.922607" />
    <rect
       style="opacity:1;fill:#7e45a4;fill-opacity:1;stroke:#ffffff;stroke-width:2.61937499;stroke-linejoin:bevel;stroke-miterlimit:4;stroke-dasharray:none;stroke-dashoffset:0;stroke-opacity:1"
       id="rect10-2"
       width="68.791664"
       height="66.523811"
       x="17.386909"
       y="146.5127"
       ry="21.922607" />
    <rect
       style="opacity:1;fill:#d778b8;fill-opacity:1;stroke:#ffffff;stroke-width:2.61937499;stroke-linejoin:bevel;stroke-miterlimit:4;stroke-dasharray:none;stroke-dashoffset:0;stroke-opacity:1"
       id="rect10-21"
       width="68.791664"
       height="66.523811"
       x="17.386906"
       y="79.989006"
       ry="21.922607" />
    <flowRoot
       xml:space="preserve"
       id="flowRoot39"
       style="fill:black;fill-opacity:1;stroke:none;font-family:Magneto;font-style:normal;font-weight:normal;font-size:40px;line-height:1.25;letter-spacing:0px;word-spacing:0px;-inkscape-font-specification:Magneto;font-stretch:normal;font-variant:normal"><flowRegion
         id="flowRegion41"><rect
           id="rect43"
           width="397.14288"
           height="200"
           x="394.28571"
           y="102.51968" /></flowRegion><flowPara
         id="flowPara45"></flowPara></flowRoot>    <g
       aria-label="#892F52"
       transform="matrix(0.26458333,0,0,0.26458333,9.0714286,7.5595238)"
       style="font-style:normal;font-variant:normal;font-weight:normal;font-stretch:normal;font-size:40px;line-height:1.25;font-family:Magneto;-inkscape-font-specification:Magneto;letter-spacing:0px;word-spacing:0px;fill:#000000;fill-opacity:1;stroke:none"
       id="flowRoot4541">
      <path
         d="m 403.21094,146.92578 h -6.50391 l -1.79687,7.34375 h 6.01562 v 2.63672 h -6.69922 l -2.03125,8.22266 h -2.51953 l 2.03125,-8.22266 h -5.27344 l -2.03125,8.22266 h -2.51953 l 2.03125,-8.22266 h -5.82031 v -2.63672 h 6.50391 l 1.79687,-7.34375 h -6.01562 v -2.63672 h 6.69921 l 2.05079,-8.24219 h 2.51953 l -2.05078,8.24219 h 5.27343 l 2.05078,-8.24219 h 2.51954 l -2.05079,8.24219 h 5.82032 z m -8.96485,-0.0391 h -5.35156 l -1.83594,7.42187 h 5.35157 z"
         style="font-style:normal;font-variant:normal;font-weight:normal;font-stretch:normal;font-family:sans-serif;-inkscape-font-specification:sans-serif"
         id="path4597" />
      <path
         d="m 430.06641,157.02344 q 0,3.76953 -2.94922,6.26953 -2.92969,2.5 -7.38282,2.5 -4.72656,0 -7.53906,-2.44141 -2.79297,-2.4414 -2.79297,-6.25 0,-2.42187 1.40625,-4.375 1.40625,-1.97265 3.96485,-3.125 v -0.11719 q -2.34375,-1.25 -3.47657,-2.73437 -1.11328,-1.48438 -1.11328,-3.71094 0,-3.28125 2.69532,-5.46875 2.69531,-2.1875 6.85546,-2.1875 4.35547,0 6.95313,2.08985 2.59766,2.08984 2.59766,5.3125 0,1.97265 -1.23047,3.88671 -1.23047,1.89454 -3.61328,2.96875 v 0.11719 q 2.73437,1.17188 4.17968,2.89063 1.44532,1.71875 1.44532,4.375 z m -4.62891,-14.19922 q 0,-2.08985 -1.62109,-3.32031 -1.60157,-1.25 -4.10157,-1.25 -2.46093,0 -4.04297,1.17187 -1.5625,1.17188 -1.5625,3.16406 0,1.40625 0.78125,2.44141 0.80079,1.01562 2.40235,1.81641 0.72265,0.35156 2.07031,0.91796 1.36719,0.56641 2.65625,0.9375 1.93359,-1.28906 2.67578,-2.67578 0.74219,-1.38672 0.74219,-3.20312 z m 0.60547,14.57031 q 0,-1.79687 -0.80078,-2.87109 -0.78125,-1.09375 -3.08594,-2.1875 -0.91797,-0.42969 -2.01172,-0.80078 -1.09375,-0.3711 -2.91016,-1.03516 -1.75781,0.95703 -2.83203,2.59766 -1.05468,1.64062 -1.05468,3.71093 0,2.63672 1.8164,4.35547 1.81641,1.71875 4.60938,1.71875 2.85156,0 4.55078,-1.46484 1.71875,-1.46485 1.71875,-4.02344 z"
         style="font-style:normal;font-variant:normal;font-weight:normal;font-stretch:normal;font-family:sans-serif;-inkscape-font-specification:sans-serif"
         id="path4599" />
      <path
         d="m 455.28125,148.83984 q 0,3.8086 -0.87891,6.91407 -0.85937,3.10546 -2.61718,5.29296 -1.77735,2.22657 -4.45313,3.4375 -2.67578,1.21094 -6.28906,1.21094 -1.01563,0 -1.91406,-0.11719 -0.89844,-0.0977 -1.60157,-0.33203 v -3.73047 h 0.19532 q 0.5664,0.29297 1.60156,0.56641 1.03515,0.25391 2.30469,0.25391 4.3164,0 6.75781,-2.57813 2.46094,-2.59765 2.85156,-7.14844 -1.81641,1.09375 -3.41797,1.5625 -1.60156,0.46875 -3.49609,0.46875 -1.79688,0 -3.26172,-0.35156 -1.44531,-0.35156 -2.91016,-1.36719 -1.71875,-1.1914 -2.59765,-3.02734 -0.85938,-1.83594 -0.85938,-4.39453 0,-4.45313 2.92969,-7.24609 2.92969,-2.79297 7.14844,-2.79297 2.10937,0 3.90625,0.66406 1.79687,0.64453 3.14453,1.95312 1.66015,1.6211 2.55859,4.17969 0.89844,2.53906 0.89844,6.58203 z M 451.33594,148 q 0,-3.02734 -0.625,-4.86328 -0.625,-1.83594 -1.71875,-2.85156 -0.91797,-0.87891 -1.97266,-1.25 -1.05469,-0.39063 -2.28516,-0.39063 -2.8125,0 -4.45312,1.75781 -1.62109,1.75782 -1.62109,4.94141 0,1.85547 0.52734,3.02734 0.52734,1.17188 1.77734,2.05078 0.87891,0.60547 1.9336,0.82032 1.05468,0.19531 2.34375,0.19531 1.52343,0 3.08593,-0.41016 1.5625,-0.41015 2.92969,-1.1914 0.0195,-0.41016 0.0391,-0.80078 0.0391,-0.41016 0.0391,-1.03516 z"
         style="font-style:normal;font-variant:normal;font-weight:normal;font-stretch:normal;font-family:sans-serif;-inkscape-font-specification:sans-serif"
         id="path4601" />
      <path
         d="m 480.78906,165.12891 h -19.6875 v -4.08204 q 2.05078,-1.75781 4.10156,-3.51562 2.07032,-1.75781 3.84766,-3.49609 3.75,-3.63282 5.13672,-5.76172 1.38672,-2.14844 1.38672,-4.62891 0,-2.26562 -1.50391,-3.53516 -1.48437,-1.28906 -4.16015,-1.28906 -1.77735,0 -3.84766,0.625 -2.07031,0.625 -4.04297,1.91406 h -0.19531 v -4.10156 q 1.38672,-0.68359 3.6914,-1.25 2.32422,-0.5664 4.49219,-0.5664 4.47266,0 7.01172,2.16796 2.53906,2.14844 2.53906,5.83985 0,1.66015 -0.42968,3.10547 -0.41016,1.42578 -1.23047,2.71484 -0.76172,1.21094 -1.79688,2.38281 -1.01562,1.17188 -2.48047,2.59766 -2.08984,2.05078 -4.3164,3.98437 -2.22657,1.91407 -4.16016,3.55469 h 15.64453 z"
         style="font-style:normal;font-variant:normal;font-weight:normal;font-stretch:normal;font-family:sans-serif;-inkscape-font-specification:sans-serif"
         id="path4603" />
      <path
         d="m 505.90625,139.48437 h -14.70703 v 8.20313 h 12.63672 v 3.4375 h -12.63672 v 14.00391 h -3.86719 v -29.08204 h 18.57422 z"
         style="font-style:normal;font-variant:normal;font-weight:normal;font-stretch:normal;font-family:sans-serif;-inkscape-font-specification:sans-serif"
         id="path4605" />
      <path
         d="m 528.99219,155.89062 q 0,2.03125 -0.74219,3.88672 -0.74219,1.85547 -2.03125,3.125 -1.40625,1.36719 -3.35938,2.10938 -1.93359,0.72265 -4.49218,0.72265 -2.38282,0 -4.58985,-0.50781 -2.20703,-0.48828 -3.73047,-1.1914 v -4.1211 h 0.27344 q 1.60156,1.01563 3.75,1.73828 2.14844,0.70313 4.21875,0.70313 1.38672,0 2.67578,-0.39063 1.3086,-0.39062 2.32422,-1.36718 0.85938,-0.83985 1.28906,-2.01172 0.44922,-1.17188 0.44922,-2.71485 0,-1.5039 -0.52734,-2.53906 -0.50781,-1.03516 -1.42578,-1.66016 -1.01563,-0.74218 -2.48047,-1.03515 -1.44531,-0.3125 -3.24219,-0.3125 -1.71875,0 -3.32031,0.23437 -1.58203,0.23438 -2.73438,0.46875 v -14.98047 h 17.5 v 3.41797 h -13.73046 v 7.73438 q 0.83984,-0.0781 1.71875,-0.11719 0.8789,-0.0391 1.52343,-0.0391 2.36328,0 4.14063,0.41015 1.77734,0.39063 3.26172,1.40625 1.5625,1.07422 2.42187,2.77344 0.85938,1.69922 0.85938,4.25781 z"
         style="font-style:normal;font-variant:normal;font-weight:normal;font-stretch:normal;font-family:sans-serif;-inkscape-font-specification:sans-serif"
         id="path4607" />
      <path
         d="m 554.69531,165.12891 h -19.6875 v -4.08204 q 2.05078,-1.75781 4.10156,-3.51562 2.07032,-1.75781 3.84766,-3.49609 3.75,-3.63282 5.13672,-5.76172 1.38672,-2.14844 1.38672,-4.62891 0,-2.26562 -1.50391,-3.53516 -1.48437,-1.28906 -4.16015,-1.28906 -1.77735,0 -3.84766,0.625 -2.07031,0.625 -4.04297,1.91406 h -0.19531 v -4.10156 q 1.38672,-0.68359 3.6914,-1.25 2.32422,-0.5664 4.49219,-0.5664 4.47266,0 7.01172,2.16796 2.53906,2.14844 2.53906,5.83985 0,1.66015 -0.42968,3.10547 -0.41016,1.42578 -1.23047,2.71484 -0.76172,1.21094 -1.79688,2.38281 -1.01562,1.17188 -2.48047,2.59766 -2.08984,2.05078 -4.3164,3.98437 -2.22657,1.91407 -4.16016,3.55469 h 15.64453 z"
         style="font-style:normal;font-variant:normal;font-weight:normal;font-stretch:normal;font-family:sans-serif;-inkscape-font-specification:sans-serif"
         id="path4609" />
    </g>
    <g
       aria-label="#554FBD"
       transform="matrix(0.26458333,0,0,0.26458333,14.466597,204.74031)"
       style="font-style:normal;font-variant:normal;font-weight:normal;font-stretch:normal;font-size:40px;line-height:1.25;font-family:Magneto;-inkscape-font-specification:Magneto;letter-spacing:0px;word-spacing:0px;fill:#000000;fill-opacity:1;stroke:none"
       id="flowRoot4541-3">
      <path
         d="m 403.21094,146.92578 h -6.50391 l -1.79687,7.34375 h 6.01562 v 2.63672 h -6.69922 l -2.03125,8.22266 h -2.51953 l 2.03125,-8.22266 h -5.27344 l -2.03125,8.22266 h -2.51953 l 2.03125,-8.22266 h -5.82031 v -2.63672 h 6.50391 l 1.79687,-7.34375 h -6.01562 v -2.63672 h 6.69921 l 2.05079,-8.24219 h 2.51953 l -2.05078,8.24219 h 5.27343 l 2.05078,-8.24219 h 2.51954 l -2.05079,8.24219 h 5.82032 z m -8.96485,-0.0391 h -5.35156 l -1.83594,7.42187 h 5.35157 z"
         style="font-style:normal;font-variant:normal;font-weight:normal;font-stretch:normal;font-family:sans-serif;-inkscape-font-specification:sans-serif"
         id="path4642" />
      <path
         d="m 429.61719,155.89062 q 0,2.03125 -0.74219,3.88672 -0.74219,1.85547 -2.03125,3.125 -1.40625,1.36719 -3.35938,2.10938 -1.93359,0.72265 -4.49218,0.72265 -2.38282,0 -4.58985,-0.50781 -2.20703,-0.48828 -3.73047,-1.1914 v -4.1211 h 0.27344 q 1.60156,1.01563 3.75,1.73828 2.14844,0.70313 4.21875,0.70313 1.38672,0 2.67578,-0.39063 1.3086,-0.39062 2.32422,-1.36718 0.85938,-0.83985 1.28906,-2.01172 0.44922,-1.17188 0.44922,-2.71485 0,-1.5039 -0.52734,-2.53906 -0.50781,-1.03516 -1.42578,-1.66016 -1.01563,-0.74218 -2.48047,-1.03515 -1.44531,-0.3125 -3.24219,-0.3125 -1.71875,0 -3.32031,0.23437 -1.58203,0.23438 -2.73438,0.46875 v -14.98047 h 17.5 v 3.41797 h -13.73046 v 7.73438 q 0.83984,-0.0781 1.71875,-0.11719 0.8789,-0.0391 1.52343,-0.0391 2.36328,0 4.14063,0.41015 1.77734,0.39063 3.26172,1.40625 1.5625,1.07422 2.42187,2.77344 0.85938,1.69922 0.85938,4.25781 z"
         style="font-style:normal;font-variant:normal;font-weight:normal;font-stretch:normal;font-family:sans-serif;-inkscape-font-specification:sans-serif"
         id="path4644" />
      <path
         d="m 455.08594,155.89062 q 0,2.03125 -0.74219,3.88672 -0.74219,1.85547 -2.03125,3.125 -1.40625,1.36719 -3.35938,2.10938 -1.93359,0.72265 -4.49218,0.72265 -2.38282,0 -4.58985,-0.50781 -2.20703,-0.48828 -3.73047,-1.1914 v -4.1211 h 0.27344 q 1.60156,1.01563 3.75,1.73828 2.14844,0.70313 4.21875,0.70313 1.38672,0 2.67578,-0.39063 1.3086,-0.39062 2.32422,-1.36718 0.85938,-0.83985 1.28906,-2.01172 0.44922,-1.17188 0.44922,-2.71485 0,-1.5039 -0.52734,-2.53906 -0.50781,-1.03516 -1.42578,-1.66016 -1.01563,-0.74218 -2.48047,-1.03515 -1.44531,-0.3125 -3.24219,-0.3125 -1.71875,0 -3.32031,0.23437 -1.58203,0.23438 -2.73438,0.46875 v -14.98047 h 17.5 v 3.41797 h -13.73046 v 7.73438 q 0.83984,-0.0781 1.71875,-0.11719 0.8789,-0.0391 1.52343,-0.0391 2.36328,0 4.14063,0.41015 1.77734,0.39063 3.26172,1.40625 1.5625,1.07422 2.42187,2.77344 0.85938,1.69922 0.85938,4.25781 z"
         style="font-style:normal;font-variant:normal;font-weight:normal;font-stretch:normal;font-family:sans-serif;-inkscape-font-specification:sans-serif"
         id="path4646" />
      <path
         d="m 481.45312,156.94531 h -4.3164 v 8.1836 h -3.75 v -8.1836 h -13.92578 v -4.49219 l 14.08203,-16.40625 h 3.59375 v 17.77344 h 4.3164 z m -8.0664,-3.125 v -13.125 l -11.26953,13.125 z"
         style="font-style:normal;font-variant:normal;font-weight:normal;font-stretch:normal;font-family:sans-serif;-inkscape-font-specification:sans-serif"
         id="path4648" />
      <path
         d="m 505.90625,139.48437 h -14.70703 v 8.20313 h 12.63672 v 3.4375 h -12.63672 v 14.00391 h -3.86719 v -29.08204 h 18.57422 z"
         style="font-style:normal;font-variant:normal;font-weight:normal;font-stretch:normal;font-family:sans-serif;-inkscape-font-specification:sans-serif"
         id="path4650" />
      <path
         d="m 532.23437,156.18359 q 0,2.16797 -0.82031,3.82813 -0.82031,1.66015 -2.20703,2.73437 -1.64062,1.28907 -3.61328,1.83594 -1.95313,0.54688 -4.98047,0.54688 h -10.3125 v -29.08204 h 8.61328 q 3.1836,0 4.76563,0.23438 1.58203,0.23437 3.02734,0.97656 1.60156,0.83985 2.32422,2.16797 0.72266,1.30859 0.72266,3.14453 0,2.07031 -1.05469,3.53516 -1.05469,1.44531 -2.8125,2.32422 v 0.15625 q 2.94922,0.60547 4.64844,2.59765 1.69921,1.97266 1.69921,5 z m -6.5039,-13.10547 q 0,-1.05468 -0.35156,-1.77734 -0.35157,-0.72266 -1.13282,-1.17187 -0.91797,-0.52735 -2.22656,-0.64454 -1.30859,-0.13671 -3.24219,-0.13671 h -4.60937 v 8.39843 h 5 q 1.8164,0 2.89062,-0.17578 1.07422,-0.19531 1.99219,-0.78125 0.91797,-0.58594 1.28906,-1.5039 0.39063,-0.9375 0.39063,-2.20704 z m 2.48047,13.26172 q 0,-1.75781 -0.52735,-2.79297 -0.52734,-1.03515 -1.91406,-1.75781 -0.9375,-0.48828 -2.28516,-0.625 -1.32812,-0.15625 -3.24218,-0.15625 h -6.07422 v 10.82031 h 5.11719 q 2.53906,0 4.16015,-0.2539 1.6211,-0.27344 2.65625,-0.97656 1.09375,-0.76172 1.60156,-1.73829 0.50782,-0.97656 0.50782,-2.51953 z"
         style="font-style:normal;font-variant:normal;font-weight:normal;font-stretch:normal;font-family:sans-serif;-inkscape-font-specification:sans-serif"
         id="path4652" />
      <path
         d="m 562.29297,150.61719 q 0,3.96484 -1.73828,7.1875 -1.71875,3.22265 -4.58985,5 -1.99218,1.23047 -4.45312,1.77734 -2.44141,0.54688 -6.44531,0.54688 h -7.34375 v -29.08204 h 7.26562 q 4.25781,0 6.75781,0.625 2.51953,0.60547 4.25782,1.67969 2.96875,1.85547 4.6289,4.94141 1.66016,3.08594 1.66016,7.32422 z m -4.04297,-0.0586 q 0,-3.41797 -1.19141,-5.76172 -1.1914,-2.34375 -3.55468,-3.6914 -1.71875,-0.97656 -3.65235,-1.34766 -1.93359,-0.39062 -4.6289,-0.39062 h -3.63282 v 22.4414 h 3.63282 q 2.79296,0 4.86328,-0.41015 2.08984,-0.41016 3.82812,-1.52344 2.16797,-1.38672 3.24219,-3.65234 1.09375,-2.26563 1.09375,-5.66407 z"
         style="font-style:normal;font-variant:normal;font-weight:normal;font-stretch:normal;font-family:sans-serif;-inkscape-font-specification:sans-serif"
         id="path4654" />
    </g>
    <g
       aria-label="#7E45A4"
       transform="matrix(0.26458333,0,0,0.26458333,14.088621,138.2165)"
       style="font-style:normal;font-variant:normal;font-weight:normal;font-stretch:normal;font-size:40px;line-height:1.25;font-family:Magneto;-inkscape-font-specification:Magneto;letter-spacing:0px;word-spacing:0px;fill:#000000;fill-opacity:1;stroke:none"
       id="flowRoot4541-2">
      <path
         d="m 403.21094,146.92578 h -6.50391 l -1.79687,7.34375 h 6.01562 v 2.63672 h -6.69922 l -2.03125,8.22266 h -2.51953 l 2.03125,-8.22266 h -5.27344 l -2.03125,8.22266 h -2.51953 l 2.03125,-8.22266 h -5.82031 v -2.63672 h 6.50391 l 1.79687,-7.34375 h -6.01562 v -2.63672 h 6.69921 l 2.05079,-8.24219 h 2.51953 l -2.05078,8.24219 h 5.27343 l 2.05078,-8.24219 h 2.51954 l -2.05079,8.24219 h 5.82032 z m -8.96485,-0.0391 h -5.35156 l -1.83594,7.42187 h 5.35157 z"
         style="font-style:normal;font-variant:normal;font-weight:normal;font-stretch:normal;font-family:sans-serif;-inkscape-font-specification:sans-serif"
         id="path4627" />
      <path
         d="m 429.92969,140.40234 -13.16407,24.72657 h -4.17968 l 14.0039,-25.66407 h -16.5625 v -3.41797 h 19.90235 z"
         style="font-style:normal;font-variant:normal;font-weight:normal;font-stretch:normal;font-family:sans-serif;-inkscape-font-specification:sans-serif"
         id="path4629" />
      <path
         d="m 455.55469,165.12891 h -19.16016 v -29.08204 h 19.16016 v 3.4375 h -15.29297 v 7.96875 h 15.29297 v 3.4375 h -15.29297 v 10.80079 h 15.29297 z"
         style="font-style:normal;font-variant:normal;font-weight:normal;font-stretch:normal;font-family:sans-serif;-inkscape-font-specification:sans-serif"
         id="path4631" />
      <path
         d="m 481.29687,156.94531 h -4.3164 v 8.1836 h -3.75 v -8.1836 h -13.92578 v -4.49219 l 14.08203,-16.40625 h 3.59375 v 17.77344 h 4.3164 z m -8.0664,-3.125 v -13.125 l -11.26953,13.125 z"
         style="font-style:normal;font-variant:normal;font-weight:normal;font-stretch:normal;font-family:sans-serif;-inkscape-font-specification:sans-serif"
         id="path4633" />
      <path
         d="m 505.86719,155.89062 q 0,2.03125 -0.74219,3.88672 -0.74219,1.85547 -2.03125,3.125 -1.40625,1.36719 -3.35938,2.10938 -1.93359,0.72265 -4.49218,0.72265 -2.38282,0 -4.58985,-0.50781 -2.20703,-0.48828 -3.73047,-1.1914 v -4.1211 h 0.27344 q 1.60156,1.01563 3.75,1.73828 2.14844,0.70313 4.21875,0.70313 1.38672,0 2.67578,-0.39063 1.3086,-0.39062 2.32422,-1.36718 0.85938,-0.83985 1.28906,-2.01172 0.44922,-1.17188 0.44922,-2.71485 0,-1.5039 -0.52734,-2.53906 -0.50781,-1.03516 -1.42578,-1.66016 -1.01563,-0.74218 -2.48047,-1.03515 -1.44531,-0.3125 -3.24219,-0.3125 -1.71875,0 -3.32031,0.23437 -1.58203,0.23438 -2.73438,0.46875 v -14.98047 h 17.5 v 3.41797 h -13.73046 v 7.73438 q 0.83984,-0.0781 1.71875,-0.11719 0.8789,-0.0391 1.52343,-0.0391 2.36328,0 4.14063,0.41015 1.77734,0.39063 3.26172,1.40625 1.5625,1.07422 2.42187,2.77344 0.85938,1.69922 0.85938,4.25781 z"
         style="font-style:normal;font-variant:normal;font-weight:normal;font-stretch:normal;font-family:sans-serif;-inkscape-font-specification:sans-serif"
         id="path4635" />
      <path
         d="m 535.57422,165.12891 h -4.1211 l -2.85156,-8.10547 h -12.57812 l -2.85157,8.10547 h -3.92578 l 10.58594,-29.08204 h 5.15625 z m -8.16406,-11.42579 -5.09766,-14.27734 -5.11719,14.27734 z"
         style="font-style:normal;font-variant:normal;font-weight:normal;font-stretch:normal;font-family:sans-serif;-inkscape-font-specification:sans-serif"
         id="path4637" />
      <path
         d="m 559.57812,156.94531 h -4.3164 v 8.1836 h -3.75 v -8.1836 h -13.92578 v -4.49219 l 14.08203,-16.40625 h 3.59375 v 17.77344 h 4.3164 z m -8.0664,-3.125 v -13.125 l -11.26953,13.125 z"
         style="font-style:normal;font-variant:normal;font-weight:normal;font-stretch:normal;font-family:sans-serif;-inkscape-font-specification:sans-serif"
         id="path4639" />
    </g>
    <g
       aria-label="#D778B8"
       transform="matrix(0.26458333,0,0,0.26458333,12.954693,73.960546)"
       style="font-style:normal;font-variant:normal;font-weight:normal;font-stretch:normal;font-size:40px;line-height:1.25;font-family:Magneto;-inkscape-font-specification:Magneto;letter-spacing:0px;word-spacing:0px;fill:#000000;fill-opacity:1;stroke:none"
       id="flowRoot4541-1">
      <path
         d="m 403.21094,146.92578 h -6.50391 l -1.79687,7.34375 h 6.01562 v 2.63672 h -6.69922 l -2.03125,8.22266 h -2.51953 l 2.03125,-8.22266 h -5.27344 l -2.03125,8.22266 h -2.51953 l 2.03125,-8.22266 h -5.82031 v -2.63672 h 6.50391 l 1.79687,-7.34375 h -6.01562 v -2.63672 h 6.69921 l 2.05079,-8.24219 h 2.51953 l -2.05078,8.24219 h 5.27343 l 2.05078,-8.24219 h 2.51954 l -2.05079,8.24219 h 5.82032 z m -8.96485,-0.0391 h -5.35156 l -1.83594,7.42187 h 5.35157 z"
         style="font-style:normal;font-variant:normal;font-weight:normal;font-stretch:normal;font-family:sans-serif;-inkscape-font-specification:sans-serif"
         id="path4612" />
      <path
         d="m 435.49609,150.61719 q 0,3.96484 -1.73828,7.1875 -1.71875,3.22265 -4.58984,5 -1.99219,1.23047 -4.45313,1.77734 -2.4414,0.54688 -6.44531,0.54688 h -7.34375 v -29.08204 h 7.26563 q 4.25781,0 6.75781,0.625 2.51953,0.60547 4.25781,1.67969 2.96875,1.85547 4.62891,4.94141 1.66015,3.08594 1.66015,7.32422 z m -4.04297,-0.0586 q 0,-3.41797 -1.1914,-5.76172 -1.19141,-2.34375 -3.55469,-3.6914 -1.71875,-0.97656 -3.65234,-1.34766 -1.9336,-0.39062 -4.62891,-0.39062 h -3.63281 v 22.4414 h 3.63281 q 2.79297,0 4.86328,-0.41015 2.08985,-0.41016 3.82813,-1.52344 2.16797,-1.38672 3.24218,-3.65234 1.09375,-2.26563 1.09375,-5.66407 z"
         style="font-style:normal;font-variant:normal;font-weight:normal;font-stretch:normal;font-family:sans-serif;-inkscape-font-specification:sans-serif"
         id="path4614" />
      <path
         d="M 460.78906,140.40234 447.625,165.12891 h -4.17969 l 14.00391,-25.66407 h -16.5625 v -3.41797 h 19.90234 z"
         style="font-style:normal;font-variant:normal;font-weight:normal;font-stretch:normal;font-family:sans-serif;-inkscape-font-specification:sans-serif"
         id="path4616" />
      <path
         d="m 486.25781,140.40234 -13.16406,24.72657 h -4.17969 l 14.00391,-25.66407 h -16.5625 v -3.41797 h 19.90234 z"
         style="font-style:normal;font-variant:normal;font-weight:normal;font-stretch:normal;font-family:sans-serif;-inkscape-font-specification:sans-serif"
         id="path4618" />
      <path
         d="m 511.86328,157.02344 q 0,3.76953 -2.94922,6.26953 -2.92969,2.5 -7.38281,2.5 -4.72656,0 -7.53906,-2.44141 -2.79297,-2.4414 -2.79297,-6.25 0,-2.42187 1.40625,-4.375 1.40625,-1.97265 3.96484,-3.125 v -0.11719 q -2.34375,-1.25 -3.47656,-2.73437 -1.11328,-1.48438 -1.11328,-3.71094 0,-3.28125 2.69531,-5.46875 2.69531,-2.1875 6.85547,-2.1875 4.35547,0 6.95312,2.08985 2.59766,2.08984 2.59766,5.3125 0,1.97265 -1.23047,3.88671 -1.23047,1.89454 -3.61328,2.96875 v 0.11719 q 2.73438,1.17188 4.17969,2.89063 1.44531,1.71875 1.44531,4.375 z m -4.62891,-14.19922 q 0,-2.08985 -1.62109,-3.32031 -1.60156,-1.25 -4.10156,-1.25 -2.46094,0 -4.04297,1.17187 -1.5625,1.17188 -1.5625,3.16406 0,1.40625 0.78125,2.44141 0.80078,1.01562 2.40234,1.81641 0.72266,0.35156 2.07032,0.91796 1.36718,0.56641 2.65625,0.9375 1.93359,-1.28906 2.67578,-2.67578 0.74218,-1.38672 0.74218,-3.20312 z m 0.60547,14.57031 q 0,-1.79687 -0.80078,-2.87109 -0.78125,-1.09375 -3.08594,-2.1875 -0.91796,-0.42969 -2.01171,-0.80078 -1.09375,-0.3711 -2.91016,-1.03516 -1.75781,0.95703 -2.83203,2.59766 -1.05469,1.64062 -1.05469,3.71093 0,2.63672 1.81641,4.35547 1.8164,1.71875 4.60937,1.71875 2.85156,0 4.55078,-1.46484 1.71875,-1.46485 1.71875,-4.02344 z"
         style="font-style:normal;font-variant:normal;font-weight:normal;font-stretch:normal;font-family:sans-serif;-inkscape-font-specification:sans-serif"
         id="path4620" />
      <path
         d="m 540.125,156.18359 q 0,2.16797 -0.82031,3.82813 -0.82032,1.66015 -2.20703,2.73437 -1.64063,1.28907 -3.61329,1.83594 -1.95312,0.54688 -4.98046,0.54688 h -10.3125 v -29.08204 h 8.61328 q 3.18359,0 4.76562,0.23438 1.58203,0.23437 3.02735,0.97656 1.60156,0.83985 2.32421,2.16797 0.72266,1.30859 0.72266,3.14453 0,2.07031 -1.05469,3.53516 -1.05468,1.44531 -2.8125,2.32422 v 0.15625 q 2.94922,0.60547 4.64844,2.59765 1.69922,1.97266 1.69922,5 z m -6.50391,-13.10547 q 0,-1.05468 -0.35156,-1.77734 -0.35156,-0.72266 -1.13281,-1.17187 -0.91797,-0.52735 -2.22656,-0.64454 -1.3086,-0.13671 -3.24219,-0.13671 h -4.60938 v 8.39843 h 5 q 1.81641,0 2.89063,-0.17578 1.07422,-0.19531 1.99219,-0.78125 0.91796,-0.58594 1.28906,-1.5039 0.39062,-0.9375 0.39062,-2.20704 z m 2.48047,13.26172 q 0,-1.75781 -0.52734,-2.79297 -0.52735,-1.03515 -1.91406,-1.75781 -0.9375,-0.48828 -2.28516,-0.625 -1.32813,-0.15625 -3.24219,-0.15625 h -6.07422 v 10.82031 h 5.11719 q 2.53906,0 4.16016,-0.2539 1.62109,-0.27344 2.65625,-0.97656 1.09375,-0.76172 1.60156,-1.73829 0.50781,-0.97656 0.50781,-2.51953 z"
         style="font-style:normal;font-variant:normal;font-weight:normal;font-stretch:normal;font-family:sans-serif;-inkscape-font-specification:sans-serif"
         id="path4622" />
      <path
         d="m 564.75391,157.02344 q 0,3.76953 -2.94922,6.26953 -2.92969,2.5 -7.38282,2.5 -4.72656,0 -7.53906,-2.44141 -2.79297,-2.4414 -2.79297,-6.25 0,-2.42187 1.40625,-4.375 1.40625,-1.97265 3.96485,-3.125 v -0.11719 q -2.34375,-1.25 -3.47657,-2.73437 -1.11328,-1.48438 -1.11328,-3.71094 0,-3.28125 2.69532,-5.46875 2.69531,-2.1875 6.85546,-2.1875 4.35547,0 6.95313,2.08985 2.59766,2.08984 2.59766,5.3125 0,1.97265 -1.23047,3.88671 -1.23047,1.89454 -3.61328,2.96875 v 0.11719 q 2.73437,1.17188 4.17968,2.89063 1.44532,1.71875 1.44532,4.375 z M 560.125,142.82422 q 0,-2.08985 -1.62109,-3.32031 -1.60157,-1.25 -4.10157,-1.25 -2.46093,0 -4.04297,1.17187 -1.5625,1.17188 -1.5625,3.16406 0,1.40625 0.78125,2.44141 0.80079,1.01562 2.40235,1.81641 0.72265,0.35156 2.07031,0.91796 1.36719,0.56641 2.65625,0.9375 1.93359,-1.28906 2.67578,-2.67578 0.74219,-1.38672 0.74219,-3.20312 z m 0.60547,14.57031 q 0,-1.79687 -0.80078,-2.87109 -0.78125,-1.09375 -3.08594,-2.1875 -0.91797,-0.42969 -2.01172,-0.80078 -1.09375,-0.3711 -2.91016,-1.03516 -1.75781,0.95703 -2.83203,2.59766 -1.05468,1.64062 -1.05468,3.71093 0,2.63672 1.8164,4.35547 1.81641,1.71875 4.60938,1.71875 2.85156,0 4.55078,-1.46484 1.71875,-1.46485 1.71875,-4.02344 z"
         style="font-style:normal;font-variant:normal;font-weight:normal;font-stretch:normal;font-family:sans-serif;-inkscape-font-specification:sans-serif"
         id="path4624" />
    </g>
  </g>
</svg>
